<svg width="20" height="20" viewBox="0 0 20 20" fill="none" xmlns="http://www.w3.org/2000/svg">
<path d="M5.83002 18.0002C5.66098 18.4781 5.37364 18.9054 4.99481 19.2422C4.61598 19.579 4.15801 19.8144 3.66363 19.9263C3.16924 20.0383 2.65455 20.0232 2.16758 19.8824C1.68061 19.7417 1.23722 19.4799 0.878789 19.1214C0.520355 18.763 0.258554 18.3196 0.117811 17.8326C-0.0229315 17.3457 -0.0380288 16.831 0.0739274 16.3366C0.185884 15.8422 0.421245 15.3843 0.758053 15.0054C1.09486 14.6266 1.52214 14.3393 2.00002 14.1702V5.83021C1.52214 5.66116 1.09486 5.37382 0.758053 4.99499C0.421245 4.61617 0.185884 4.1582 0.0739274 3.66381C-0.0380288 3.16943 -0.0229315 2.65474 0.117811 2.16777C0.258554 1.68079 0.520355 1.23741 0.878789 0.878973C1.23722 0.520538 1.68061 0.258737 2.16758 0.117994C2.65455 -0.0227484 3.16924 -0.0378457 3.66363 0.0741105C4.15801 0.186067 4.61598 0.421428 4.99481 0.758236C5.37364 1.09504 5.66098 1.52232 5.83002 2.00021H14.17C14.3391 1.52232 14.6264 1.09504 15.0052 0.758236C15.3841 0.421428 15.842 0.186067 16.3364 0.0741105C16.8308 -0.0378457 17.3455 -0.0227484 17.8325 0.117994C18.3194 0.258737 18.7628 0.520538 19.1213 0.878973C19.4797 1.23741 19.7415 1.68079 19.8822 2.16777C20.023 2.65474 20.0381 3.16943 19.9261 3.66381C19.8142 4.1582 19.5788 4.61617 19.242 4.99499C18.9052 5.37382 18.4779 5.66116 18 5.83021V14.1702C18.4779 14.3393 18.9052 14.6266 19.242 15.0054C19.5788 15.3843 19.8142 15.8422 19.9261 16.3366C20.0381 16.831 20.023 17.3457 19.8822 17.8326C19.7415 18.3196 19.4797 18.763 19.1213 19.1214C18.7628 19.4799 18.3194 19.7417 17.8325 19.8824C17.3455 20.0232 16.8308 20.0383 16.3364 19.9263C15.842 19.8144 15.3841 19.579 15.0052 19.2422C14.6264 18.9054 14.3391 18.4781 14.17 18.0002H5.83002ZM5.83002 16.0002H14.17C14.3191 15.5779 14.5609 15.1944 14.8775 14.8777C15.1942 14.5611 15.5777 14.3193 16 14.1702V5.83021C15.5777 5.6811 15.1942 5.43935 14.8775 5.12269C14.5609 4.80603 14.3191 4.42249 14.17 4.00021H5.83002C5.68092 4.42249 5.43917 4.80603 5.12251 5.12269C4.80584 5.43935 4.4223 5.6811 4.00002 5.83021V14.1702C4.4223 14.3193 4.80584 14.5611 5.12251 14.8777C5.43917 15.1944 5.68092 15.5779 5.83002 16.0002ZM3.00002 4.00021C3.26524 4.00021 3.51959 3.89485 3.70713 3.70731C3.89467 3.51978 4.00002 3.26542 4.00002 3.00021C4.00002 2.73499 3.89467 2.48064 3.70713 2.2931C3.51959 2.10556 3.26524 2.00021 3.00002 2.00021C2.73481 2.00021 2.48045 2.10556 2.29292 2.2931C2.10538 2.48064 2.00002 2.73499 2.00002 3.00021C2.00002 3.26542 2.10538 3.51978 2.29292 3.70731C2.48045 3.89485 2.73481 4.00021 3.00002 4.00021ZM17 4.00021C17.2652 4.00021 17.5196 3.89485 17.7071 3.70731C17.8947 3.51978 18 3.26542 18 3.00021C18 2.73499 17.8947 2.48064 17.7071 2.2931C17.5196 2.10556 17.2652 2.00021 17 2.00021C16.7348 2.00021 16.4805 2.10556 16.2929 2.2931C16.1054 2.48064 16 2.73499 16 3.00021C16 3.26542 16.1054 3.51978 16.2929 3.70731C16.4805 3.89485 16.7348 4.00021 17 4.00021ZM17 18.0002C17.2652 18.0002 17.5196 17.8949 17.7071 17.7073C17.8947 17.5198 18 17.2654 18 17.0002C18 16.735 17.8947 16.4806 17.7071 16.2931C17.5196 16.1056 17.2652 16.0002 17 16.0002C16.7348 16.0002 16.4805 16.1056 16.2929 16.2931C16.1054 16.4806 16 16.735 16 17.0002C16 17.2654 16.1054 17.5198 16.2929 17.7073C16.4805 17.8949 16.7348 18.0002 17 18.0002ZM3.00002 18.0002C3.26524 18.0002 3.51959 17.8949 3.70713 17.7073C3.89467 17.5198 4.00002 17.2654 4.00002 17.0002C4.00002 16.735 3.89467 16.4806 3.70713 16.2931C3.51959 16.1056 3.26524 16.0002 3.00002 16.0002C2.73481 16.0002 2.48045 16.1056 2.29292 16.2931C2.10538 16.4806 2.00002 16.735 2.00002 17.0002C2.00002 17.2654 2.10538 17.5198 2.29292 17.7073C2.48045 17.8949 2.73481 18.0002 3.00002 18.0002Z" fill="black"/>
</svg>
