<svg width="42" height="40" viewBox="0 0 42 40" fill="none" xmlns="http://www.w3.org/2000/svg">
<path d="M16.3999 36.5333V14.8666M21.3999 28.5283C22.9203 27.6505 24.1828 26.3879 25.0605 24.8674C25.9382 23.347 26.4001 21.6222 26.3999 19.8666V13.2C26.3999 10.5478 25.3463 8.00425 23.471 6.12888C21.5956 4.25352 19.0521 3.19995 16.3999 3.19995C13.7477 3.19995 11.2042 4.25352 9.32883 6.12888C7.45347 8.00425 6.3999 10.5478 6.3999 13.2V19.8666C6.3999 23.5666 8.41157 26.8 11.3999 28.5283M16.3999 24.8666L20.5666 20.7M16.3999 21.5333L12.2332 17.3666M13.0666 36.5333H19.7332" stroke="white" stroke-width="2" stroke-linecap="round" stroke-linejoin="round"/>
<path d="M28.436 36.6664V29.4831L30.9812 26.9177M33.1618 18.2664C33.7556 18.3969 34.2972 18.703 34.7174 19.1455C35.1376 19.588 35.4173 20.1468 35.5207 20.7504C35.6241 21.354 35.5465 21.975 35.2978 22.5339C36.0367 22.8159 36.6616 23.3373 37.0745 24.0163C37.4874 24.6952 37.6647 25.4932 37.5787 26.2848C37.4927 27.0764 37.1482 27.8168 36.5993 28.3896C36.0505 28.9624 35.3284 29.3351 34.5465 29.4493C34.5465 31.1486 33.1792 32.5637 31.4923 32.5637M26.3999 36.6664H30.4722" stroke="white" stroke-width="2" stroke-linecap="round" stroke-linejoin="round"/>
</svg>
