<svg width="32" height="31" viewBox="0 0 32 31" fill="none" xmlns="http://www.w3.org/2000/svg">
<path d="M10.0977 1.16748C10.7285 1.81739 11.1441 2.60111 11.3828 3.44749C11.7704 4.82233 11.7457 6.36271 11.6153 7.93365C11.3543 11.0757 10.7041 14.3826 11.4628 16.4349C12.1751 18.3611 13.3171 19.5052 14.5841 20.0677C15.1291 20.3097 15.7028 20.4437 16.2832 20.4783C17.6704 16.5377 17.3744 11.5086 15.0919 8.1096C18.1139 11.03 19.5413 15.4399 18.6192 20.062L18.0704 20.2757C18.2418 20.2262 18.4106 20.1687 18.5763 20.1036C21.1877 19.0822 23.3247 16.0922 22.4356 11.7084C22.0271 9.69436 20.6253 6.85471 18.2794 4.65474C16.2499 2.75163 13.5402 1.31182 10.0976 1.1676L10.0977 1.16748ZM27.8456 12.2798C27.7931 13.0124 27.5558 13.7044 27.1856 14.3328C26.5386 15.4311 25.5326 16.3767 24.4434 17.2749C22.2649 19.0714 19.7523 20.7356 18.9238 22.4346C18.1391 24.0441 18.1186 25.4167 18.5372 26.5084C18.7161 26.9756 18.9837 27.4062 19.3263 27.778C22.683 26.1561 25.6844 22.8791 26.4394 19.4207C26.4441 23.032 24.525 26.6068 21.0254 28.9208C23.263 29.8015 26.418 29.2256 28.6329 26.0297C29.659 24.549 30.6053 21.9549 30.5586 19.1955C30.519 16.8531 29.7921 14.3984 27.8457 12.28L27.8456 12.2798ZM1.29101 16.7282C0.698322 19.506 1.33526 21.9856 2.50976 24.0336C3.89326 26.4457 6.05238 28.2341 7.70507 29.0192C11.2719 30.7138 14.2997 29.6832 15.7832 27.8367C11.5588 27.5279 8.05245 25.362 6.19345 22.2323C8.6322 24.8617 12.9221 26.2459 16.6661 26.024C16.7714 25.5363 16.7814 25.0338 16.6954 24.5426C16.4946 23.3943 15.7661 22.2147 14.2559 21.2011C12.6619 20.1312 9.62813 19.9078 6.81451 19.4074C5.40776 19.1573 4.04907 18.8268 2.92201 18.189C2.27682 17.8239 1.71489 17.3377 1.29114 16.7283L1.29101 16.7282Z" fill="#2A9E37"/>
</svg>
