<svg width="37" height="37" viewBox="0 0 37 37" fill="none" xmlns="http://www.w3.org/2000/svg">
<path d="M30.8333 22.3528C30.8333 28.7399 25.3111 33.9168 18.5 33.9168C11.6889 33.9168 6.16666 28.7399 6.16666 22.3528V22.0136C6.16666 20.882 6.16666 20.3162 6.55824 20.1081C7.40616 19.6595 9.24999 21.5835 9.24999 21.5835M6.16666 14.6475C6.16666 8.26041 11.6889 3.0835 18.5 3.0835C25.3111 3.0835 30.8333 8.26041 30.8333 14.6475V14.9867C30.8333 16.1183 30.8333 16.6841 30.4417 16.8922C29.5938 17.3408 27.75 15.4168 27.75 15.4168" stroke="#2A9E37" stroke-width="1.5" stroke-linecap="round" stroke-linejoin="round"/>
<path d="M18.4692 17.2054C17.3592 19.4007 16.5498 22.9604 17.8247 26.9795M17.1788 23.1685C10.6329 18.5127 15.1299 13.157 19.3633 10.4529C19.8736 10.1276 20.1295 9.96417 20.4271 10.0397C20.7246 10.1168 20.868 10.382 21.1517 10.9154C23.5289 15.3508 25.2325 22.3391 17.1788 23.1685Z" stroke="#2A9E37" stroke-width="1.5" stroke-linecap="round" stroke-linejoin="round"/>
</svg>
