<svg width="27" height="26" viewBox="0 0 27 26" fill="none" xmlns="http://www.w3.org/2000/svg">
<path d="M22.3929 15.7072C22.3929 20.1955 18.5124 23.8333 13.7262 23.8333C8.94007 23.8333 5.05957 20.1955 5.05957 15.7072V15.4689C5.05957 14.6737 5.05957 14.2762 5.33474 14.1299C5.93057 13.8147 7.22624 15.1667 7.22624 15.1667M5.05957 10.2927C5.05957 5.8045 8.94007 2.16666 13.7262 2.16666C18.5124 2.16666 22.3929 5.8045 22.3929 10.2927V10.5311C22.3929 11.3262 22.3929 11.7238 22.1177 11.8701C21.5219 12.1853 20.2262 10.8333 20.2262 10.8333" stroke="white" stroke-width="1.5" stroke-linecap="round" stroke-linejoin="round"/>
<path d="M13.7046 12.09C12.9246 13.6327 12.3558 16.1341 13.2517 18.9583M12.7978 16.2803C8.19797 13.0087 11.3581 9.24516 14.3329 7.345C14.6915 7.11641 14.8713 7.00158 15.0804 7.05466C15.2895 7.10883 15.3902 7.29516 15.5896 7.67C17.2601 10.7867 18.4571 15.6975 12.7978 16.2803Z" stroke="white" stroke-width="1.5" stroke-linecap="round" stroke-linejoin="round"/>
</svg>
