<svg width="42" height="41" viewBox="0 0 42 41" fill="none" xmlns="http://www.w3.org/2000/svg">
<path d="M29.0791 8.54172C27.575 8.54053 26.0988 8.94795 24.8083 9.72047C23.8726 7.57273 22.2294 5.81034 20.1523 4.72677C18.0752 3.64319 15.6896 3.30383 13.3928 3.7652C11.0959 4.22657 9.02645 5.46081 7.52893 7.26241C6.0314 9.06401 5.19621 11.3242 5.16245 13.6667V20.5001C5.1649 22.9206 6.02387 25.2621 7.58723 27.11C9.15059 28.9579 11.3175 30.1929 13.7041 30.5963V35.8751C13.7041 36.3281 13.8841 36.7627 14.2045 37.083C14.5248 37.4034 14.9594 37.5834 15.4124 37.5834C15.8655 37.5834 16.3 37.4034 16.6204 37.083C16.9408 36.7627 17.1208 36.3281 17.1208 35.8751V30.5963C18.8607 30.2928 20.4949 29.5522 21.8699 28.4438C22.4798 29.4227 23.2817 30.2679 24.2271 30.9285C25.1725 31.5891 26.2419 32.0514 27.3708 32.2876V35.8751C27.3708 36.3281 27.5508 36.7627 27.8711 37.083C28.1915 37.4034 28.626 37.5834 29.0791 37.5834C29.5322 37.5834 29.9667 37.4034 30.2871 37.083C30.6075 36.7627 30.7874 36.3281 30.7874 35.8751V32.2876C32.7168 31.8937 34.4508 30.8454 35.696 29.32C36.9412 27.7946 37.6212 25.8858 37.6208 23.9167V17.0834C37.6208 14.818 36.7209 12.6454 35.119 11.0435C33.5171 9.44165 31.3445 8.54172 29.0791 8.54172ZM20.5374 17.0834V23.9167C20.553 24.243 20.5872 24.5681 20.6399 24.8905C19.7263 25.9786 18.4962 26.7549 17.1208 27.1113V22.2084C17.1208 21.7553 16.9408 21.3208 16.6204 21.0004C16.3 20.68 15.8655 20.5001 15.4124 20.5001C14.9594 20.5001 14.5248 20.68 14.2045 21.0004C13.8841 21.3208 13.7041 21.7553 13.7041 22.2084V27.0942C12.241 26.7164 10.9443 25.8643 10.017 24.6712C9.08968 23.478 8.58402 22.0112 8.57911 20.5001V13.6667C8.57465 12.313 8.9724 10.9884 9.72188 9.86107C10.4714 8.73372 11.5388 7.85439 12.7888 7.33462C14.0388 6.81486 15.415 6.67809 16.7428 6.94166C18.0707 7.20523 19.2903 7.85727 20.247 8.81505C21.1718 9.75231 21.8014 10.9402 22.0579 12.2317C21.0703 13.6571 20.54 15.3493 20.5374 17.0834ZM34.2041 23.9167C34.2011 24.9741 33.8712 26.0046 33.2595 26.8671C32.6478 27.7296 31.7843 28.3818 30.7874 28.7342V22.2084C30.7874 21.7553 30.6075 21.3208 30.2871 21.0004C29.9667 20.68 29.5322 20.5001 29.0791 20.5001C28.626 20.5001 28.1915 20.68 27.8711 21.0004C27.5508 21.3208 27.3708 21.7553 27.3708 22.2084V28.7342C26.3739 28.3818 25.5104 27.7296 24.8987 26.8671C24.287 26.0046 23.9571 24.9741 23.9541 23.9167V17.0834C23.9541 15.7242 24.4941 14.4206 25.4552 13.4595C26.4163 12.4983 27.7199 11.9584 29.0791 11.9584C30.4383 11.9584 31.7419 12.4983 32.703 13.4595C33.6642 14.4206 34.2041 15.7242 34.2041 17.0834V23.9167Z" fill="#2A9E37"/>
</svg>
