<svg width="27" height="26" viewBox="0 0 27 26" fill="none" xmlns="http://www.w3.org/2000/svg">
<path d="M15.8929 10.8333V10.6167C15.8929 10.3606 15.8425 10.107 15.7445 9.87043C15.6465 9.63385 15.5028 9.41888 15.3218 9.23781C15.1407 9.05673 14.9257 8.9131 14.6891 8.8151C14.4526 8.7171 14.199 8.66666 13.9429 8.66666H13.5096C12.9924 8.66666 12.4964 8.87211 12.1307 9.23781C11.765 9.6035 11.5596 10.0995 11.5596 10.6167V15.3833C11.5596 15.9005 11.765 16.3965 12.1307 16.7622C12.4964 17.1279 12.9924 17.3333 13.5096 17.3333H13.9429C14.4601 17.3333 14.9561 17.1279 15.3218 16.7622C15.6875 16.3965 15.8929 15.9005 15.8929 15.3833V15.1667" stroke="white" stroke-width="2" stroke-linecap="round" stroke-linejoin="round"/>
<path d="M3.97607 6.5C3.97607 5.63805 4.31848 4.8114 4.92798 4.2019C5.53747 3.59241 6.36412 3.25 7.22607 3.25H20.2261C21.088 3.25 21.9147 3.59241 22.5242 4.2019C23.1337 4.8114 23.4761 5.63805 23.4761 6.5V19.5C23.4761 20.362 23.1337 21.1886 22.5242 21.7981C21.9147 22.4076 21.088 22.75 20.2261 22.75H7.22607C6.36412 22.75 5.53747 22.4076 4.92798 21.7981C4.31848 21.1886 3.97607 20.362 3.97607 19.5V6.5Z" stroke="white" stroke-width="2" stroke-linecap="round" stroke-linejoin="round"/>
</svg>
