<svg width="40" height="40" viewBox="0 0 40 40" fill="none" xmlns="http://www.w3.org/2000/svg">
<path d="M36.4788 32.5889C37.0231 32.1183 37.4512 31.7327 37.7631 31.4322C38.0806 31.126 38.3443 30.8084 38.5541 30.4796C38.7639 30.1507 38.8688 29.8218 38.8688 29.4929C38.8688 29.1527 38.7866 28.8862 38.6221 28.6934C38.4634 28.5006 38.211 28.4042 37.8652 28.4042C37.5306 28.4042 37.2698 28.512 37.0827 28.7275C36.9012 28.9373 36.8048 29.2208 36.7935 29.578H35.8579C35.8749 28.9316 36.0677 28.4383 36.4363 28.0981C36.8105 27.7522 37.284 27.5792 37.8567 27.5792C38.4747 27.5792 38.9567 27.7493 39.3026 28.0895C39.6541 28.4298 39.8299 28.8834 39.8299 29.4504C39.8299 29.8587 39.725 30.2528 39.5152 30.6327C39.3111 31.0069 39.0644 31.3443 38.7752 31.6448C38.4917 31.9397 38.1288 32.2827 37.6865 32.674L37.3038 33.0142H40V33.8222H35.8664V33.1162L36.4788 32.5889Z" fill="white"/>
<path d="M29.8731 30.9688C28.9564 30.9688 28.1106 30.7561 27.3357 30.3309C26.5702 29.8962 25.9607 29.2961 25.5071 28.5306C25.0629 27.7556 24.8408 26.8862 24.8408 25.9222C24.8408 24.9583 25.0629 24.0936 25.5071 23.3281C25.9607 22.5626 26.5702 21.9672 27.3357 21.542C28.1106 21.1073 28.9564 20.8899 29.8731 20.8899C30.7992 20.8899 31.6451 21.1073 32.4105 21.542C33.1855 21.9672 33.795 22.5626 34.2392 23.3281C34.6833 24.0936 34.9054 24.9583 34.9054 25.9222C34.9054 26.8862 34.6833 27.7556 34.2392 28.5306C33.795 29.2961 33.1855 29.8962 32.4105 30.3309C31.6451 30.7561 30.7992 30.9688 29.8731 30.9688ZM29.8731 29.5654C30.5252 29.5654 31.1064 29.4189 31.6167 29.1259C32.127 28.8235 32.5239 28.3983 32.8074 27.8501C33.1004 27.2926 33.2469 26.6499 33.2469 25.9222C33.2469 25.1946 33.1004 24.5567 32.8074 24.0085C32.5239 23.4604 32.127 23.0399 31.6167 22.7469C31.1064 22.4539 30.5252 22.3075 29.8731 22.3075C29.221 22.3075 28.6399 22.4539 28.1295 22.7469C27.6192 23.0399 27.2176 23.4604 26.9246 24.0085C26.6411 24.5567 26.4994 25.1946 26.4994 25.9222C26.4994 26.6499 26.6411 27.2926 26.9246 27.8501C27.2176 28.3983 27.6192 28.8235 28.1295 29.1259C28.6399 29.4189 29.221 29.5654 29.8731 29.5654Z" fill="white"/>
<path d="M13.8765 25.9222C13.8765 24.9583 14.0985 24.0936 14.5427 23.3281C14.9963 22.5626 15.6059 21.9672 16.3713 21.542C17.1463 21.1073 17.9921 20.8899 18.9088 20.8899C19.9577 20.8899 20.8886 21.1498 21.7013 21.6696C22.5235 22.1799 23.1189 22.9076 23.4874 23.8526H21.5454C21.2902 23.3328 20.9359 22.9454 20.4822 22.6902C20.0286 22.435 19.5041 22.3075 18.9088 22.3075C18.2567 22.3075 17.6755 22.4539 17.1652 22.7469C16.6549 23.0399 16.2532 23.4604 15.9603 24.0085C15.6768 24.5567 15.535 25.1946 15.535 25.9222C15.535 26.6499 15.6768 27.2878 15.9603 27.836C16.2532 28.3841 16.6549 28.8094 17.1652 29.1118C17.6755 29.4047 18.2567 29.5512 18.9088 29.5512C19.5041 29.5512 20.0286 29.4236 20.4822 29.1685C20.9359 28.9133 21.2902 28.5258 21.5454 28.0061H23.4874C23.1189 28.9511 22.5235 29.6788 21.7013 30.1891C20.8886 30.6994 19.9577 30.9546 18.9088 30.9546C17.9826 30.9546 17.1368 30.742 16.3713 30.3167C15.6059 29.882 14.9963 29.2819 14.5427 28.5164C14.0985 27.7509 13.8765 26.8862 13.8765 25.9222Z" fill="white"/>
<path d="M0 26.4432C0.000159025 21.9505 3.68326 18.3242 8.20478 18.3242H8.20648L8.41878 18.3293C8.27563 17.7095 8.18804 17.0775 8.15978 16.4407L8.14959 15.9728C8.14961 10.145 12.9266 5.43883 18.7983 5.43872C24.0818 5.43872 28.475 9.24785 29.3069 14.2558C30.3714 14.6806 31.3613 15.2753 32.2374 16.0178C32.6038 16.3283 32.6489 16.8768 32.3385 17.2432C32.028 17.6095 31.4795 17.6554 31.1131 17.3451C30.2653 16.6266 29.2904 16.0728 28.2387 15.7138V15.7147C27.3227 15.4026 26.3411 15.2323 25.3192 15.2323H25.3183C24.3059 15.232 23.3001 15.4012 22.3436 15.7333L22.0592 14.9113L21.7738 14.0902C22.9139 13.6943 24.1123 13.4928 25.3192 13.4932L25.7726 13.5025C26.3292 13.5257 26.875 13.5923 27.4073 13.697C26.3912 9.94908 22.9283 7.17784 18.7983 7.17784C13.8677 7.17795 9.88873 11.1248 9.88871 15.9728V15.9737C9.88835 16.863 10.0257 17.7459 10.2921 18.5925C11.0373 18.7866 11.7523 19.0828 12.415 19.4757L12.7572 19.6905L12.8294 19.7432C13.1705 20.0222 13.2518 20.52 13.0035 20.8955C12.7552 21.271 12.2652 21.3914 11.8749 21.1868L11.7985 21.1409L11.5285 20.9719C10.8896 20.5931 10.1896 20.3261 9.45902 20.1839H9.45817C9.05504 20.1049 8.63687 20.0643 8.20308 20.0633C4.62366 20.0642 1.73928 22.9306 1.73912 26.4432C1.73912 29.8464 4.44662 32.6423 7.87106 32.8138L8.20478 32.8222L8.29395 32.8265C8.73229 32.8712 9.07434 33.2417 9.07434 33.6918C9.07418 34.1418 8.73217 34.5116 8.29395 34.5563L8.20478 34.5614L7.78359 34.5503C3.45689 34.3336 0 30.796 0 26.4432ZM21.407 32.8222L21.4953 32.8265C21.9339 32.8709 22.2766 33.2415 22.2766 33.6918C22.2764 34.142 21.9338 34.5119 21.4953 34.5563L21.407 34.5614H14.5609C14.0808 34.5613 13.6915 34.1719 13.6913 33.6918C13.6913 33.2116 14.0807 32.8223 14.5609 32.8222H21.407ZM22.3436 15.7333C21.8901 15.8906 21.3947 15.6502 21.2372 15.1967C21.0799 14.7431 21.3203 14.2477 21.7738 14.0902L22.3436 15.7333Z" fill="white"/>
</svg>
