<svg width="40" height="40" viewBox="0 0 40 40" fill="none" xmlns="http://www.w3.org/2000/svg">
<path d="M6.875 15.625C7.44953 15.625 8.01844 15.5118 8.54924 15.292C9.08004 15.0721 9.56234 14.7498 9.96859 14.3436C10.3748 13.9373 10.6971 13.455 10.917 12.9242C11.1368 12.3934 11.25 11.8245 11.25 11.25C11.25 12.4103 11.7109 13.5231 12.5314 14.3436C13.3519 15.1641 14.4647 15.625 15.625 15.625C16.7853 15.625 17.8981 15.1641 18.7186 14.3436C19.5391 13.5231 20 12.4103 20 11.25C20 12.4103 20.4609 13.5231 21.2814 14.3436C22.1019 15.1641 23.2147 15.625 24.375 15.625C25.5353 15.625 26.6481 15.1641 27.4686 14.3436C28.2891 13.5231 28.75 12.4103 28.75 11.25C28.75 12.4103 29.2109 13.5231 30.0314 14.3436C30.8519 15.1641 31.9647 15.625 33.125 15.625C34.2853 15.625 35.3981 15.1641 36.2186 14.3436C37.0391 13.5231 37.5 12.4103 37.5 11.25C37.5 20.9152 29.6652 28.75 20 28.75C10.3348 28.75 2.5 20.9152 2.5 11.25C2.5 12.4103 2.96094 13.5231 3.78141 14.3436C4.60188 15.1641 5.71468 15.625 6.875 15.625Z" stroke="white" stroke-width="2" stroke-linecap="round" stroke-linejoin="round"/>
<path d="M9.91943 19.65C10.6194 20.63 12.3554 22.422 13.6994 21.75C15.0434 21.078 15.9394 20.07 16.2194 19.65C16.9194 20.49 18.7394 22.086 20.4194 21.75C22.0994 21.414 23.0794 20.21 23.3594 19.65C24.0594 20.63 25.8794 22.422 27.5594 21.75C29.2394 21.078 30.2194 20.07 30.4994 19.65" stroke="white" stroke-width="2"/>
</svg>
