<svg width="30" height="24" viewBox="0 0 30 24" fill="none" xmlns="http://www.w3.org/2000/svg">
<g clip-path="url(#clip0_1259_378)">
<path d="M28.5143 8.07833L27.7714 8.32302C25.7351 8.98909 24.1367 10.6271 23.4866 12.7137L23.2479 13.4749L23.0091 12.7137C22.3591 10.6271 20.7606 8.98909 18.7243 8.32302L17.9814 8.07833L18.7243 7.83365C20.7606 7.16758 22.3591 5.52958 23.0091 3.44299L23.2479 2.68176L23.4866 3.44299C24.1367 5.52958 25.7351 7.16758 27.7714 7.83365L28.5143 8.07833Z" fill="white"/>
<path d="M29.6484 3.65366L29.3234 3.76241C28.3152 4.10904 27.5326 4.93824 27.2274 5.97813L27.1014 6.40632L26.9754 5.97813C26.6703 4.93824 25.8876 4.10904 24.8794 3.76241L24.5544 3.65366L24.8794 3.54491C25.8876 3.19828 26.6703 2.36909 26.9754 1.32919L27.1014 0.901001L27.2274 1.32919C27.5326 2.36909 28.3152 3.19828 29.3234 3.54491L29.6484 3.65366Z" stroke="white" stroke-width="0.34" stroke-miterlimit="10"/>
<path d="M19.1156 11.5242H4.12555C3.86913 11.5242 3.66125 11.7372 3.66125 11.9999C3.66125 12.2627 3.86913 12.4757 4.12555 12.4757H19.1156C19.372 12.4757 19.5799 12.2627 19.5799 11.9999C19.5799 11.7372 19.372 11.5242 19.1156 11.5242Z" fill="white"/>
<path d="M19.1156 16.6655H4.12555C3.86913 16.6655 3.66125 16.8785 3.66125 17.1413C3.66125 17.4041 3.86913 17.6171 4.12555 17.6171H19.1156C19.372 17.6171 19.5799 17.4041 19.5799 17.1413C19.5799 16.8785 19.372 16.6655 19.1156 16.6655Z" fill="white"/>
<path d="M10.1425 14.0994H3.96668C3.798 14.0994 3.66125 14.2789 3.66125 14.5004V14.9422C3.66125 15.1636 3.798 15.3432 3.96668 15.3432H10.1425C10.3111 15.3432 10.4479 15.1636 10.4479 14.9422V14.5004C10.4479 14.2789 10.3111 14.0994 10.1425 14.0994Z" fill="white"/>
<path d="M19.235 14.0994H13.1528C12.9623 14.0994 12.8079 14.2576 12.8079 14.4528V14.9897C12.8079 15.1849 12.9623 15.3432 13.1528 15.3432H19.235C19.4255 15.3432 19.5799 15.1849 19.5799 14.9897V14.4528C19.5799 14.2576 19.4255 14.0994 19.235 14.0994Z" fill="white"/>
<path d="M22.9096 14.2361C22.9096 17.4306 20.3825 20.0201 17.2651 20.0201C17.0064 20.4755 16.5222 21.1891 15.6931 21.8212C14.6385 22.63 13.5706 22.8679 13.0267 22.9495C13.239 22.8 13.9951 22.229 14.214 21.1891C14.3201 20.7066 14.2671 20.2852 14.214 20.0201H5.98274C4.42404 20.0201 3.01126 19.3744 1.98982 18.3277C0.96837 17.281 0.338257 15.8334 0.338257 14.2361C0.338257 11.0417 2.86534 8.45215 5.98274 8.45215H17.2717" stroke="white" stroke-miterlimit="10" stroke-linecap="round"/>
</g>
<defs>
<clipPath id="clip0_1259_378">
<rect width="30" height="23" fill="white" transform="translate(0 0.5)"/>
</clipPath>
</defs>
</svg>
