<svg width="20" height="22" viewBox="0 0 20 22" fill="none" xmlns="http://www.w3.org/2000/svg">
<path d="M1 7.76923C1.26522 7.76923 1.51957 7.65982 1.70711 7.46507C1.89464 7.27032 2 7.00619 2 6.73077V3.61538C2 3.33997 2.10536 3.07583 2.29289 2.88108C2.48043 2.68633 2.73478 2.57692 3 2.57692H6C6.26522 2.57692 6.51957 2.46751 6.70711 2.27276C6.89464 2.07802 7 1.81388 7 1.53846C7 1.26304 6.89464 0.998908 6.70711 0.804158C6.51957 0.609409 6.26522 0.5 6 0.5H3C2.20435 0.5 1.44129 0.828227 0.87868 1.41248C0.316071 1.99672 0 2.78913 0 3.61538V6.73077C0 7.00619 0.105357 7.27032 0.292893 7.46507C0.48043 7.65982 0.734784 7.76923 1 7.76923ZM6 19.1923H3C2.73478 19.1923 2.48043 19.0829 2.29289 18.8881C2.10536 18.6934 2 18.4293 2 18.1538V15.0385C2 14.763 1.89464 14.4989 1.70711 14.3042C1.51957 14.1094 1.26522 14 1 14C0.734784 14 0.48043 14.1094 0.292893 14.3042C0.105357 14.4989 0 14.763 0 15.0385V18.1538C0 18.9801 0.316071 19.7725 0.87868 20.3568C1.44129 20.941 2.20435 21.2692 3 21.2692H6C6.26522 21.2692 6.51957 21.1598 6.70711 20.9651C6.89464 20.7703 7 20.5062 7 20.2308C7 19.9554 6.89464 19.6912 6.70711 19.4965C6.51957 19.3017 6.26522 19.1923 6 19.1923ZM15 11.9231C15.2652 11.9231 15.5196 11.8137 15.7071 11.6189C15.8946 11.4242 16 11.16 16 10.8846C16 10.6092 15.8946 10.3451 15.7071 10.1503C15.5196 9.95556 15.2652 9.84615 15 9.84615H13.86C13.6804 9.13184 13.3208 8.48013 12.8181 7.95811C12.3154 7.43608 11.6879 7.06262 11 6.87615V5.69231C11 5.41689 10.8946 5.15275 10.7071 4.958C10.5196 4.76326 10.2652 4.65385 10 4.65385C9.73478 4.65385 9.48043 4.76326 9.29289 4.958C9.10536 5.15275 9 5.41689 9 5.69231V6.87615C8.31214 7.06262 7.68457 7.43608 7.18188 7.95811C6.67919 8.48013 6.31956 9.13184 6.14 9.84615H5C4.73478 9.84615 4.48043 9.95556 4.29289 10.1503C4.10536 10.3451 4 10.6092 4 10.8846C4 11.16 4.10536 11.4242 4.29289 11.6189C4.48043 11.8137 4.73478 11.9231 5 11.9231H6.14C6.31956 12.6374 6.67919 13.2891 7.18188 13.8111C7.68457 14.3331 8.31214 14.7066 9 14.8931V16.0769C9 16.3523 9.10536 16.6165 9.29289 16.8112C9.48043 17.006 9.73478 17.1154 10 17.1154C10.2652 17.1154 10.5196 17.006 10.7071 16.8112C10.8946 16.6165 11 16.3523 11 16.0769V14.8931C11.6879 14.7066 12.3154 14.3331 12.8181 13.8111C13.3208 13.2891 13.6804 12.6374 13.86 11.9231H15ZM10 12.9615C9.60444 12.9615 9.21776 12.8397 8.88886 12.6115C8.55996 12.3833 8.30362 12.0589 8.15224 11.6794C8.00087 11.2999 7.96126 10.8823 8.03843 10.4794C8.1156 10.0765 8.30608 9.70647 8.58579 9.41601C8.86549 9.12555 9.22186 8.92774 9.60982 8.8476C9.99778 8.76746 10.3999 8.80859 10.7654 8.96579C11.1308 9.12298 11.4432 9.38919 11.6629 9.73074C11.8827 10.0723 12 10.4738 12 10.8846C12 11.4354 11.7893 11.9637 11.4142 12.3532C11.0391 12.7427 10.5304 12.9615 10 12.9615ZM19 14C18.7348 14 18.4804 14.1094 18.2929 14.3042C18.1054 14.4989 18 14.763 18 15.0385V18.1538C18 18.4293 17.8946 18.6934 17.7071 18.8881C17.5196 19.0829 17.2652 19.1923 17 19.1923H14C13.7348 19.1923 13.4804 19.3017 13.2929 19.4965C13.1054 19.6912 13 19.9554 13 20.2308C13 20.5062 13.1054 20.7703 13.2929 20.9651C13.4804 21.1598 13.7348 21.2692 14 21.2692H17C17.7956 21.2692 18.5587 20.941 19.1213 20.3568C19.6839 19.7725 20 18.9801 20 18.1538V15.0385C20 14.763 19.8946 14.4989 19.7071 14.3042C19.5196 14.1094 19.2652 14 19 14ZM17 0.5H14C13.7348 0.5 13.4804 0.609409 13.2929 0.804158C13.1054 0.998908 13 1.26304 13 1.53846C13 1.81388 13.1054 2.07802 13.2929 2.27276C13.4804 2.46751 13.7348 2.57692 14 2.57692H17C17.2652 2.57692 17.5196 2.68633 17.7071 2.88108C17.8946 3.07583 18 3.33997 18 3.61538V6.73077C18 7.00619 18.1054 7.27032 18.2929 7.46507C18.4804 7.65982 18.7348 7.76923 19 7.76923C19.2652 7.76923 19.5196 7.65982 19.7071 7.46507C19.8946 7.27032 20 7.00619 20 6.73077V3.61538C20 2.78913 19.6839 1.99672 19.1213 1.41248C18.5587 0.828227 17.7956 0.5 17 0.5Z" fill="#2A9E37"/>
</svg>
