<svg width="27" height="26" viewBox="0 0 27 26" fill="none" xmlns="http://www.w3.org/2000/svg">
<path d="M10.4761 3.25V11.9167H8.30946V5.86083L6.14279 6.44475V3.92058L8.64854 3.25H10.4761ZM21.3095 3.25V17.3333H24.5595L20.2261 22.75L15.8928 17.3333H19.1428V3.25H21.3095ZM12.6428 16.7917C12.6431 17.3808 12.4832 17.959 12.1802 18.4643L9.70587 22.75H7.20338L8.79913 19.9875C8.19179 19.8749 7.6291 19.5916 7.17692 19.1708C6.72474 18.7501 6.4018 18.2092 6.24589 17.6115C6.08998 17.0138 6.10757 16.3841 6.29659 15.796C6.48561 15.208 6.83823 14.6859 7.31319 14.291C7.78814 13.8961 8.36577 13.6447 8.97844 13.5662C9.59111 13.4877 10.2135 13.5853 10.7727 13.8477C11.3319 14.11 11.8047 14.5263 12.1359 15.0477C12.4671 15.569 12.6429 16.174 12.6428 16.7917ZM9.39279 17.875C9.68011 17.875 9.95566 17.7609 10.1588 17.5577C10.362 17.3545 10.4761 17.079 10.4761 16.7917C10.4761 16.5043 10.362 16.2288 10.1588 16.0256C9.95566 15.8225 9.68011 15.7083 9.39279 15.7083C9.10547 15.7083 8.82992 15.8225 8.62676 16.0256C8.4236 16.2288 8.30946 16.5043 8.30946 16.7917C8.30946 17.079 8.4236 17.3545 8.62676 17.5577C8.82992 17.7609 9.10547 17.875 9.39279 17.875Z" fill="white"/>
</svg>
