<svg width="31" height="31" viewBox="0 0 31 31" fill="none" xmlns="http://www.w3.org/2000/svg">
<path d="M2.72855 26.75H10.2285V28.625H2.72855V26.75ZM16.791 27.6875C16.6506 27.6874 16.512 27.6558 16.3854 27.5949C16.2589 27.5341 16.1476 27.4456 16.0598 27.3359L12.591 23H2.72855V21.125H13.041C13.1815 21.1251 13.3201 21.1567 13.4467 21.2176C13.5732 21.2784 13.6845 21.3669 13.7723 21.4766L16.7226 25.1628L21.636 17.7922C21.7192 17.6675 21.8311 17.5645 21.9624 17.492C22.0936 17.4194 22.2403 17.3794 22.3901 17.3753C22.54 17.3711 22.6887 17.403 22.8237 17.4682C22.9587 17.5334 23.0761 17.63 23.166 17.75L25.6973 21.125H28.9785V23H25.2285C25.083 23 24.9395 22.9661 24.8093 22.901C24.6791 22.8359 24.5659 22.7414 24.4785 22.625L22.461 19.9344L17.571 27.2703C17.4892 27.393 17.3795 27.4946 17.251 27.5669C17.1225 27.6393 16.9787 27.6803 16.8314 27.6866L16.791 27.6875ZM11.166 15.5V10.8125H12.1035C13.0977 10.8113 14.0508 10.4158 14.7538 9.71278C15.4568 9.00979 15.8523 8.05668 15.8535 7.0625V4.25H13.041C12.0811 4.25177 11.1587 4.62347 10.4657 5.28781C9.98049 4.40615 9.26761 3.67081 8.40141 3.15848C7.53521 2.64615 6.54742 2.37558 5.54105 2.375H2.72855V5.1875C2.73028 6.67881 3.32347 8.10854 4.37799 9.16306C5.4325 10.2176 6.86224 10.8108 8.35355 10.8125H9.29105V15.5H2.72855V17.375H15.8535V15.5H11.166ZM13.041 6.125H13.9785V7.0625C13.9785 7.55978 13.781 8.03669 13.4294 8.38832C13.0777 8.73996 12.6008 8.9375 12.1035 8.9375H11.166V8C11.166 7.50272 11.3636 7.02581 11.7152 6.67417C12.0669 6.32254 12.5438 6.125 13.041 6.125ZM8.35355 8.9375C7.35936 8.93626 6.40626 8.54077 5.70327 7.83778C5.00027 7.13479 4.60479 6.18168 4.60355 5.1875V4.25H5.54105C6.53523 4.25124 7.48833 4.64673 8.19133 5.34972C8.89432 6.05271 9.28981 7.00582 9.29105 8V8.9375H8.35355Z" fill="#2A9E37"/>
</svg>
