<svg width="11" height="18" viewBox="0 0 11 18" fill="none" xmlns="http://www.w3.org/2000/svg">
<path d="M6.99997 15.755V18H4.99997V15.857C3.28797 15.757 1.93397 15.268 0.758972 14.06L2.47697 12.32C3.33597 13.19 4.49997 13.48 5.75897 13.48C7.32397 13.48 8.16397 12.881 8.16397 11.778C8.16397 11.295 8.03097 10.889 7.74397 10.618C7.47697 10.367 7.17197 10.231 6.54197 10.135L4.89997 9.903C3.73597 9.729 2.87797 9.362 2.26597 8.762C1.61797 8.105 1.29297 7.216 1.29297 6.055C1.29297 3.9 2.67497 2.312 4.99997 1.955V0H6.99997V1.932C8.38197 2.077 9.46497 2.552 10.415 3.483L8.73597 5.165C7.87697 4.333 6.84697 4.218 5.94897 4.218C4.53697 4.218 3.84997 5.01 3.84997 5.958C3.84997 6.306 3.96497 6.674 4.25097 6.944C4.51797 7.196 4.95697 7.408 5.51097 7.485L7.11297 7.717C8.35397 7.891 9.13597 8.239 9.70897 8.78C10.435 9.476 10.759 10.482 10.759 11.7C10.759 13.95 9.19197 15.362 6.99997 15.755Z" fill="black"/>
</svg>
