<svg width="15" height="16" viewBox="0 0 15 16" fill="none" xmlns="http://www.w3.org/2000/svg">
<path d="M8.20615 14.7062C7.81553 15.0968 7.18115 15.0968 6.79053 14.7062L1.79053 9.70615C1.3999 9.31553 1.3999 8.68115 1.79053 8.29053C2.18115 7.8999 2.81553 7.8999 3.20615 8.29053L7.4999 12.5843L11.7937 8.29365C12.1843 7.90303 12.8187 7.90303 13.2093 8.29365C13.5999 8.68428 13.5999 9.31865 13.2093 9.70928L8.20928 14.7093L8.20615 14.7062ZM13.2062 3.70615L8.20615 8.70615C7.81553 9.09678 7.18115 9.09678 6.79053 8.70615L1.79053 3.70615C1.3999 3.31553 1.3999 2.68115 1.79053 2.29053C2.18115 1.8999 2.81553 1.8999 3.20615 2.29053L7.4999 6.58428L11.7937 2.29365C12.1843 1.90303 12.8187 1.90303 13.2093 2.29365C13.5999 2.68428 13.5999 3.31865 13.2093 3.70928L13.2062 3.70615Z" fill="white"/>
</svg>
