<svg width="22" height="14" viewBox="0 0 22 14" fill="none" xmlns="http://www.w3.org/2000/svg">
<path fill-rule="evenodd" clip-rule="evenodd" d="M12.59 13.09C12.1681 13.5114 11.5963 13.748 11 13.748C10.4038 13.748 9.83188 13.5114 9.41 13.09L0.923003 4.606C0.50111 4.18391 0.264172 3.61151 0.264313 3.01472C0.264453 2.41793 0.501661 1.84564 0.923753 1.42375C1.34584 1.00186 1.91825 0.76492 2.51503 0.76506C3.11182 0.765201 3.68411 1.00241 4.106 1.4245L11 8.3185L17.894 1.4245C18.3182 1.01444 18.8864 0.787382 19.4764 0.792229C20.0663 0.797075 20.6308 1.03344 21.0481 1.45041C21.4655 1.86739 21.7024 2.4316 21.7078 3.02155C21.7132 3.61149 21.4867 4.17995 21.077 4.6045L12.5915 13.0915L12.59 13.09Z" fill="#8B8B8B"/>
</svg>
