<svg width="35" height="36" viewBox="0 0 35 36" fill="none" xmlns="http://www.w3.org/2000/svg">
<path d="M5.92622 17.068V13.4529H2.43155V8.31982H5.92622V4.68994H10.8882V8.31982H14.397V13.4529H10.8882V17.068H5.92622Z" fill="#2A9E37"/>
<path d="M27.8952 17.3159C17.0202 19.8159 14.4827 27.5284 11.9694 33.9909L14.2531 34.8159L15.401 31.9409C15.981 32.1534 16.5852 32.3159 17.0202 32.3159C30.3119 32.3159 33.9369 11.0659 33.9369 11.0659C32.7285 13.5659 24.2702 13.8784 18.2285 15.1284C12.1869 16.3784 9.7702 21.6909 9.7702 24.1909C9.7702 26.6909 11.8848 28.8784 11.8848 28.8784C15.8119 17.3159 27.8952 17.3159 27.8952 17.3159Z" fill="#2A9E37"/>
</svg>
