<svg width="24" height="24" viewBox="0 0 24 24" fill="none" xmlns="http://www.w3.org/2000/svg">
<path d="M22 12C22 6.477 17.523 2 12 2C6.477 2 2 6.477 2 12C2 17.523 6.477 22 12 22" stroke="white" stroke-width="1.5" stroke-linecap="round" stroke-linejoin="round"/>
<path d="M12.9999 2.05005C12.9999 2.05005 15.9999 6.00005 15.9999 12M10.9999 21.9501C10.9999 21.9501 7.99988 18 7.99988 12C7.99988 6.00005 10.9999 2.05005 10.9999 2.05005M2.62988 15.5H11.9999M2.62988 8.50005H21.3699" stroke="white" stroke-width="1.5" stroke-linecap="round" stroke-linejoin="round"/>
<path d="M21.8792 17.9169C22.3732 18.2209 22.3422 18.9599 21.8342 19.0179L19.2672 19.3089L18.1162 21.6209C17.8882 22.0799 17.1832 21.8549 17.0662 21.2869L15.8112 15.1709C15.7122 14.6909 16.1442 14.3889 16.5612 14.6459L21.8792 17.9169Z" stroke="white" stroke-width="1.5"/>
</svg>
