<svg width="28" height="28" viewBox="0 0 28 28" fill="none" xmlns="http://www.w3.org/2000/svg">
<path d="M6 0C4.4087 0 2.88258 0.632141 1.75736 1.75736C0.632141 2.88258 0 4.4087 0 6V22C0 23.5913 0.632141 25.1174 1.75736 26.2426C2.88258 27.3679 4.4087 28 6 28H22C23.5913 28 25.1174 27.3679 26.2426 26.2426C27.3679 25.1174 28 23.5913 28 22V6C28 4.4087 27.3679 2.88258 26.2426 1.75736C25.1174 0.632141 23.5913 0 22 0H6ZM2 6C2 4.93913 2.42143 3.92172 3.17157 3.17157C3.92172 2.42143 4.93913 2 6 2H22C23.0609 2 24.0783 2.42143 24.8284 3.17157C25.5786 3.92172 26 4.93913 26 6V22C26 23.0609 25.5786 24.0783 24.8284 24.8284C24.0783 25.5786 23.0609 26 22 26H6C4.93913 26 3.92172 25.5786 3.17157 24.8284C2.42143 24.0783 2 23.0609 2 22V6ZM9 14C9 15.3261 9.52678 16.5979 10.4645 17.5355C11.4021 18.4732 12.6739 19 14 19C15.3261 19 16.5979 18.4732 17.5355 17.5355C18.4732 16.5979 19 15.3261 19 14C19 12.6739 18.4732 11.4021 17.5355 10.4645C16.5979 9.52678 15.3261 9 14 9C12.6739 9 11.4021 9.52678 10.4645 10.4645C9.52678 11.4021 9 12.6739 9 14ZM7.07 15H6C5.73478 15 5.48043 14.8946 5.29289 14.7071C5.10536 14.5196 5 14.2652 5 14C5 13.7348 5.10536 13.4804 5.29289 13.2929C5.48043 13.1054 5.73478 13 6 13H7.07C7.28561 11.5038 7.97978 10.1176 9.04868 9.04868C10.1176 7.97978 11.5038 7.28561 13 7.07V6C13 5.73478 13.1054 5.48043 13.2929 5.29289C13.4804 5.10536 13.7348 5 14 5C14.2652 5 14.5196 5.10536 14.7071 5.29289C14.8946 5.48043 15 5.73478 15 6V7.07C16.4962 7.28561 17.8824 7.97978 18.9513 9.04868C20.0202 10.1176 20.7144 11.5038 20.93 13H22C22.2652 13 22.5196 13.1054 22.7071 13.2929C22.8946 13.4804 23 13.7348 23 14C23 14.2652 22.8946 14.5196 22.7071 14.7071C22.5196 14.8946 22.2652 15 22 15H20.93C20.7144 16.4962 20.0202 17.8824 18.9513 18.9513C17.8824 20.0202 16.4962 20.7144 15 20.93V22C15 22.2652 14.8946 22.5196 14.7071 22.7071C14.5196 22.8946 14.2652 23 14 23C13.7348 23 13.4804 22.8946 13.2929 22.7071C13.1054 22.5196 13 22.2652 13 22V20.93C11.5038 20.7144 10.1176 20.0202 9.04868 18.9513C7.97978 17.8824 7.28561 16.4962 7.07 15ZM16.5 14C16.5 14.663 16.2366 15.2989 15.7678 15.7678C15.2989 16.2366 14.663 16.5 14 16.5C13.337 16.5 12.7011 16.2366 12.2322 15.7678C11.7634 15.2989 11.5 14.663 11.5 14C11.5 13.337 11.7634 12.7011 12.2322 12.2322C12.7011 11.7634 13.337 11.5 14 11.5C14.663 11.5 15.2989 11.7634 15.7678 12.2322C16.2366 12.7011 16.5 13.337 16.5 14Z" fill="black"/>
</svg>
