<svg width="32" height="32" viewBox="0 0 32 32" fill="none" xmlns="http://www.w3.org/2000/svg">
<g clip-path="url(#clip0_431_5950)">
<path d="M31.75 15.7231C31.75 13.6136 30.5751 11.6683 28.6019 10.109C28.5988 10.109 28.5963 10.1075 28.5942 10.1044C28.0331 4.56779 22.7243 0.223145 16.25 0.223145C9.77565 0.223145 4.4669 4.56779 3.9058 10.1044L3.89805 10.109C1.9249 11.6683 0.75 13.6136 0.75 15.7231C0.75 20.5467 6.86785 24.5101 14.7 24.9766V26.5731C14.7 28.1231 11.8774 29.5352 11.8774 29.5352C11.803 29.5751 11.7451 29.6402 11.7141 29.7189C11.6832 29.7975 11.6812 29.8846 11.7085 29.9645C11.7085 29.9645 12.1812 31.2231 13.15 31.2231C14.1187 31.2231 14.8922 30.4481 16.8297 30.4481C18.7672 30.4481 20.6101 31.1177 20.6101 31.1177C20.6977 31.1448 20.7907 31.1486 20.8801 31.1288C20.9696 31.109 21.0523 31.0661 21.1201 31.0046L22.2314 29.8932C22.3524 29.7723 22.3213 29.6251 22.1601 29.5646C22.1601 29.5646 19.3515 28.5106 19.3515 26.5731V24.8356C26.4258 23.9753 31.75 20.2228 31.75 15.7231ZM3.85 15.7231C3.85 14.1437 5.0404 12.7084 6.9841 11.6141C6.9686 11.4343 6.95 11.2545 6.95 11.0731C6.95 6.79204 11.1149 3.32314 16.25 3.32314C21.3851 3.32314 25.55 6.79204 25.55 11.0731C25.55 11.2545 25.5314 11.4343 25.5175 11.6141C27.4596 12.7084 28.65 14.1437 28.65 15.7231C28.65 18.6123 24.6959 21.0303 19.3515 21.7201V20.6847C19.3619 20.4894 19.4416 20.3042 19.5763 20.1623L22.4174 17.487C22.5527 17.3455 22.633 17.1602 22.6437 16.9647V15.6456C22.6437 15.4751 22.5229 15.4054 22.3771 15.4922L19.6197 17.115C19.4709 17.2018 19.3515 17.1336 19.3515 16.9616V11.3831C19.3515 11.2126 19.2198 11.1165 19.057 11.1708L14.9945 12.5255C14.9118 12.5583 14.8402 12.6141 14.7883 12.6864C14.7364 12.7586 14.7063 12.8443 14.7016 12.9331V16.9631C14.7016 17.1336 14.5791 17.208 14.4272 17.129L11.2931 15.4798C11.2128 15.4422 11.1231 15.4292 11.0354 15.4424C10.9477 15.4556 10.8659 15.4945 10.8002 15.5542L10.2701 16.0843C10.2416 16.1121 10.2192 16.1456 10.2043 16.1825C10.1895 16.2195 10.1825 16.2591 10.1838 16.2989C10.1851 16.3388 10.1947 16.3779 10.212 16.4138C10.2292 16.4496 10.2538 16.4816 10.284 16.5074L14.469 20.167C14.5977 20.2801 14.7016 20.5111 14.7016 20.6816V21.8673C8.5868 21.4876 3.85 18.8851 3.85 15.7231Z" fill="#2A9E37"/>
</g>
<defs>
<clipPath id="clip0_431_5950">
<rect width="31" height="31" fill="white" transform="translate(0.75 0.223145)"/>
</clipPath>
</defs>
</svg>
