<svg width="40" height="40" viewBox="0 0 40 40" fill="none" xmlns="http://www.w3.org/2000/svg">
<path d="M11.3361 26.3001V37.5001M22.1 31.9001V37.5001M16.718 15.1001V15.4735C17.8946 15.9442 18.875 16.8298 19.4883 17.9757C20.1016 19.1216 20.3089 20.4551 20.074 21.7438C19.8391 23.0324 19.177 24.1944 18.203 25.027C17.2291 25.8597 16.0052 26.3103 14.7447 26.3001H7.74811C6.50266 26.2679 5.30655 25.7871 4.36376 24.9397C3.42098 24.0923 2.78994 22.9308 2.57826 21.6533C2.36659 20.3759 2.58739 19.0616 3.20302 17.9346C3.81865 16.8076 4.79096 15.9378 5.95412 15.4735V15.1001C5.95412 13.6149 6.52115 12.1905 7.53046 11.1403C8.53977 10.0901 9.9087 9.50012 11.3361 9.50012C12.7635 9.50012 14.1324 10.0901 15.1417 11.1403C16.151 12.1905 16.718 13.6149 16.718 15.1001Z" stroke="white" stroke-width="2" stroke-linecap="round" stroke-linejoin="round"/>
<path d="M20.0519 31.9H35.6477C36.0154 31.8949 36.3736 31.7845 36.6778 31.5822C36.9819 31.38 37.2187 31.0949 37.3588 30.7623C37.4988 30.4297 37.536 30.0642 37.4656 29.7112C37.3952 29.3582 37.2205 29.0331 36.963 28.7762L31.326 22.7125H31.8897C32.2574 22.7074 32.6156 22.597 32.9198 22.3947C33.2239 22.1925 33.4607 21.9074 33.6007 21.5748C33.7408 21.2422 33.7779 20.8767 33.7076 20.5237C33.6372 20.1707 33.4625 19.8456 33.205 19.5887L27.5679 13.525H27.9437C28.3275 13.5589 28.7127 13.4765 29.047 13.2891C29.3813 13.1017 29.6486 12.8183 29.8127 12.4773C29.9768 12.1364 30.0297 11.7543 29.9643 11.3829C29.8989 11.0116 29.7182 10.6689 29.4469 10.4012L21.9309 2.5L19.3003 5.25625" stroke="white" stroke-width="2" stroke-linecap="round" stroke-linejoin="round"/>
</svg>
