<svg width="42" height="41" viewBox="0 0 42 41" fill="none" xmlns="http://www.w3.org/2000/svg">
<path d="M21 15.375C21 20.6512 17.9375 24.9963 14 25.5626V33.3125H28V25.6643H23.8639C23.2189 25.6646 22.5927 25.4523 22.0867 25.0618C21.5807 24.6713 21.2245 24.1255 21.0759 23.5128C20.9273 22.9001 20.9948 22.2564 21.2677 21.6859C21.5406 21.1154 22.0028 20.6515 22.5794 20.3693C22.3243 19.5326 22.3994 18.6329 22.7898 17.8475C23.1803 17.0622 23.8578 16.4479 24.689 16.1258C24.5442 15.5113 24.5432 14.8728 24.6861 14.2579C24.829 13.643 25.1121 13.0674 25.5144 12.5741C25.9167 12.0808 26.4278 11.6824 27.0096 11.4085C27.5915 11.1347 28.2291 10.9925 28.875 10.9925C29.5209 10.9925 30.1585 11.1347 30.7404 11.4085C31.3222 11.6824 31.8333 12.0808 32.2356 12.5741C32.6379 13.0674 32.921 13.643 33.0639 14.2579C33.2068 14.8728 33.2058 15.5113 33.061 16.1258C33.8922 16.4479 34.5697 17.0622 34.9602 17.8475C35.3506 18.6329 35.4257 19.5326 35.1706 20.3693C35.7472 20.6515 36.2094 21.1154 36.4823 21.6859C36.7551 22.2564 36.8227 22.9001 36.6741 23.5128C36.5255 24.1255 36.1693 24.6713 35.6633 25.0618C35.1573 25.4523 34.5311 25.6646 33.8861 25.6643H29.75V33.3125H35.4375C35.7856 33.3125 36.1194 33.4475 36.3656 33.6878C36.6117 33.9281 36.75 34.2539 36.75 34.5938C36.75 34.9336 36.6117 35.2595 36.3656 35.4997C36.1194 35.74 35.7856 35.875 35.4375 35.875H6.5625C6.2144 35.875 5.88056 35.74 5.63442 35.4997C5.38828 35.2595 5.25 34.9336 5.25 34.5938C5.25 34.2539 5.38828 33.9281 5.63442 33.6878C5.88056 33.4475 6.2144 33.3125 6.5625 33.3125H12.25V25.5626C8.3125 24.9963 5.25 20.6512 5.25 15.375C5.25 9.71444 8.77625 5.125 13.125 5.125C17.4738 5.125 21 9.71444 21 15.375Z" fill="#2A9E37"/>
<path d="M21 15.375C21 20.6512 17.9375 24.9963 14 25.5626V33.3125H28V25.6643H23.8639C23.2189 25.6646 22.5927 25.4523 22.0867 25.0618C21.5807 24.6713 21.2245 24.1255 21.0759 23.5128C20.9273 22.9001 20.9948 22.2564 21.2677 21.6859C21.5406 21.1154 22.0028 20.6515 22.5794 20.3693C22.3243 19.5326 22.3994 18.6329 22.7898 17.8475C23.1803 17.0622 23.8578 16.4479 24.689 16.1258C24.5442 15.5113 24.5432 14.8728 24.6861 14.2579C24.829 13.643 25.1121 13.0674 25.5144 12.5741C25.9167 12.0808 26.4278 11.6824 27.0096 11.4085C27.5915 11.1347 28.2291 10.9925 28.875 10.9925C29.5209 10.9925 30.1585 11.1347 30.7404 11.4085C31.3222 11.6824 31.8333 12.0808 32.2356 12.5741C32.6379 13.0674 32.921 13.643 33.0639 14.2579C33.2068 14.8728 33.2058 15.5113 33.061 16.1258C33.8922 16.4479 34.5697 17.0622 34.9602 17.8475C35.3506 18.6329 35.4257 19.5326 35.1706 20.3693C35.7472 20.6515 36.2094 21.1154 36.4823 21.6859C36.7551 22.2564 36.8227 22.9001 36.6741 23.5128C36.5255 24.1255 36.1693 24.6713 35.6633 25.0618C35.1573 25.4523 34.5311 25.6646 33.8861 25.6643H29.75V33.3125H35.4375C35.7856 33.3125 36.1194 33.4475 36.3656 33.6878C36.6117 33.9281 36.75 34.2539 36.75 34.5938C36.75 34.9336 36.6117 35.2595 36.3656 35.4997C36.1194 35.74 35.7856 35.875 35.4375 35.875H6.5625C6.2144 35.875 5.88056 35.74 5.63442 35.4997C5.38828 35.2595 5.25 34.9336 5.25 34.5938C5.25 34.2539 5.38828 33.9281 5.63442 33.6878C5.88056 33.4475 6.2144 33.3125 6.5625 33.3125H12.25V25.5626C8.3125 24.9963 5.25 20.6512 5.25 15.375C5.25 9.71444 8.77625 5.125 13.125 5.125C17.4738 5.125 21 9.71444 21 15.375Z" fill="#2A9E37"/>
</svg>
