<svg width="27" height="26" viewBox="0 0 27 26" fill="none" xmlns="http://www.w3.org/2000/svg">
<path fill-rule="evenodd" clip-rule="evenodd" d="M8.30941 16.2105C5.87191 15.8513 3.97607 13.0959 3.97607 9.75C3.97607 6.16038 6.15899 3.25 8.85107 3.25C11.5432 3.25 13.7261 6.16038 13.7261 9.75C13.7261 13.0959 11.8302 15.8513 9.39274 16.2105V20.0417H18.0594V16.2749H15.499C15.0997 16.2751 14.712 16.1405 14.3988 15.8928C14.0855 15.6452 13.8651 15.2991 13.7731 14.9106C13.681 14.522 13.7229 14.1138 13.8918 13.752C14.0607 13.3902 14.3468 13.096 14.7038 12.9171C14.5459 12.3865 14.5924 11.816 14.8341 11.318C15.0758 10.8199 15.4952 10.4304 16.0097 10.2261C15.9201 9.83644 15.9195 9.43156 16.0079 9.04161C16.0964 8.65165 16.2717 8.28667 16.5207 7.97383C16.7697 7.66098 17.0861 7.40834 17.4463 7.23468C17.8065 7.06103 18.2012 6.97085 18.6011 6.97085C19.0009 6.97085 19.3957 7.06103 19.7558 7.23468C20.116 7.40834 20.4324 7.66098 20.6814 7.97383C20.9305 8.28667 21.1058 8.65165 21.1942 9.04161C21.2827 9.43156 21.2821 9.83644 21.1924 10.2261C21.707 10.4304 22.1264 10.8199 22.3681 11.318C22.6098 11.816 22.6563 12.3865 22.4984 12.9171C22.8553 13.096 23.1414 13.3902 23.3103 13.752C23.4793 14.1138 23.5211 14.522 23.4291 14.9106C23.3371 15.2991 23.1166 15.6452 22.8034 15.8928C22.4901 16.1405 22.1025 16.2751 21.7032 16.2749H19.1427V20.0417H22.1219C22.4811 20.0417 22.8255 20.1843 23.0794 20.4383C23.3334 20.6922 23.4761 21.0367 23.4761 21.3958C23.4761 21.755 23.3334 22.0994 23.0794 22.3534C22.8255 22.6073 22.4811 22.75 22.1219 22.75H5.33024C4.97109 22.75 4.62666 22.6073 4.3727 22.3534C4.11874 22.0994 3.97607 21.755 3.97607 21.3958C3.97607 21.0367 4.11874 20.6922 4.3727 20.4383C4.62666 20.1843 4.97109 20.0417 5.33024 20.0417H8.30941V16.2105ZM12.6427 9.75C12.6427 11.3333 12.1601 12.7248 11.4316 13.696C10.8455 14.4777 10.1327 14.9538 9.39274 15.1098V13.2708H8.30941V15.1098C7.56949 14.9538 6.85666 14.4777 6.27057 13.696C5.54203 12.7248 5.05941 11.3333 5.05941 9.75C5.05941 8.16671 5.54203 6.77517 6.27057 5.80396C6.99912 4.83275 7.92266 4.33333 8.85107 4.33333C9.77949 4.33333 10.7036 4.83275 11.4316 5.80396C12.1596 6.77517 12.6427 8.16671 12.6427 9.75ZM20.1367 9.98292L19.9276 10.8891L20.7921 11.2331C21.0553 11.3374 21.2699 11.5365 21.3935 11.7912C21.5171 12.0459 21.5409 12.3376 21.46 12.6089L21.2022 13.4783L22.012 13.8851C22.151 13.9545 22.2626 14.0689 22.3285 14.2097C22.3944 14.3504 22.4108 14.5094 22.3751 14.6606C22.3393 14.8119 22.2535 14.9467 22.1315 15.043C22.0096 15.1394 21.8586 15.1918 21.7032 15.1916H19.1427V13.8125H18.0594V15.1916H15.499C15.3435 15.1918 15.1926 15.1394 15.0706 15.043C14.9486 14.9467 14.8628 14.8119 14.8271 14.6606C14.7913 14.5094 14.8077 14.3504 14.8737 14.2097C14.9396 14.0689 15.0511 13.9545 15.1902 13.8851L16 13.4783L15.7422 12.6095C15.6613 12.3382 15.685 12.0464 15.8086 11.7917C15.9323 11.537 16.1468 11.3379 16.41 11.2336L17.274 10.8891L17.0655 9.98292C17.0123 9.75201 17.012 9.51209 17.0644 9.28103C17.1169 9.04997 17.2208 8.83371 17.3683 8.64834C17.5159 8.46298 17.7034 8.31328 17.9168 8.21039C18.1302 8.1075 18.3641 8.05406 18.6011 8.05406C18.838 8.05406 19.0719 8.1075 19.2853 8.21039C19.4988 8.31328 19.6862 8.46298 19.8338 8.64834C19.9814 8.83371 20.0853 9.04997 20.1377 9.28103C20.1901 9.51209 20.1898 9.75201 20.1367 9.98292ZM5.05941 21.3958C5.05941 21.324 5.08794 21.2551 5.13873 21.2043C5.18952 21.1535 5.25841 21.125 5.33024 21.125H22.1219C22.1937 21.125 22.2626 21.1535 22.3134 21.2043C22.3642 21.2551 22.3927 21.324 22.3927 21.3958C22.3927 21.4677 22.3642 21.5366 22.3134 21.5873C22.2626 21.6381 22.1937 21.6667 22.1219 21.6667H5.33024C5.25841 21.6667 5.18952 21.6381 5.13873 21.5873C5.08794 21.5366 5.05941 21.4677 5.05941 21.3958Z" fill="white"/>
</svg>
