<svg xmlns="http://www.w3.org/2000/svg" viewBox="0 0 70 38"><svg width="32" height="32" viewBox="0 0 32 32" fill="none" xmlns="http://www.w3.org/2000/svg" x="0"><g clip-path="url(#clip0_431_5950)"><path d="M31.75 15.7231C31.75 13.6136 30.5751 11.6683 28.6019 10.109C28.5988 10.109 28.5963 10.1075 28.5942 10.1044C28.0331 4.56779 22.7243 0.223145 16.25 0.223145C9.77565 0.223145 4.4669 4.56779 3.9058 10.1044L3.89805 10.109C1.9249 11.6683 0.75 13.6136 0.75 15.7231C0.75 20.5467 6.86785 24.5101 14.7 24.9766V26.5731C14.7 28.1231 11.8774 29.5352 11.8774 29.5352C11.803 29.5751 11.7451 29.6402 11.7141 29.7189C11.6832 29.7975 11.6812 29.8846 11.7085 29.9645C11.7085 29.9645 12.1812 31.2231 13.15 31.2231C14.1187 31.2231 14.8922 30.4481 16.8297 30.4481C18.7672 30.4481 20.6101 31.1177 20.6101 31.1177C20.6977 31.1448 20.7907 31.1486 20.8801 31.1288C20.9696 31.109 21.0523 31.0661 21.1201 31.0046L22.2314 29.8932C22.3524 29.7723 22.3213 29.6251 22.1601 29.5646C22.1601 29.5646 19.3515 28.5106 19.3515 26.5731V24.8356C26.4258 23.9753 31.75 20.2228 31.75 15.7231ZM3.85 15.7231C3.85 14.1437 5.0404 12.7084 6.9841 11.6141C6.9686 11.4343 6.95 11.2545 6.95 11.0731C6.95 6.79204 11.1149 3.32314 16.25 3.32314C21.3851 3.32314 25.55 6.79204 25.55 11.0731C25.55 11.2545 25.5314 11.4343 25.5175 11.6141C27.4596 12.7084 28.65 14.1437 28.65 15.7231C28.65 18.6123 24.6959 21.0303 19.3515 21.7201V20.6847C19.3619 20.4894 19.4416 20.3042 19.5763 20.1623L22.4174 17.487C22.5527 17.3455 22.633 17.1602 22.6437 16.9647V15.6456C22.6437 15.4751 22.5229 15.4054 22.3771 15.4922L19.6197 17.115C19.4709 17.2018 19.3515 17.1336 19.3515 16.9616V11.3831C19.3515 11.2126 19.2198 11.1165 19.057 11.1708L14.9945 12.5255C14.9118 12.5583 14.8402 12.6141 14.7883 12.6864C14.7364 12.7586 14.7063 12.8443 14.7016 12.9331V16.9631C14.7016 17.1336 14.5791 17.208 14.4272 17.129L11.2931 15.4798C11.2128 15.4422 11.1231 15.4292 11.0354 15.4424C10.9477 15.4556 10.8659 15.4945 10.8002 15.5542L10.2701 16.0843C10.2416 16.1121 10.2192 16.1456 10.2043 16.1825C10.1895 16.2195 10.1825 16.2591 10.1838 16.2989C10.1851 16.3388 10.1947 16.3779 10.212 16.4138C10.2292 16.4496 10.2538 16.4816 10.284 16.5074L14.469 20.167C14.5977 20.2801 14.7016 20.5111 14.7016 20.6816V21.8673C8.5868 21.4876 3.85 18.8851 3.85 15.7231Z" fill="#2A9E37" /></g><defs><clipPath id="clip0_431_5950"><rect width="31" height="31" fill="white" transform="translate(0.75 0.223145)" /></clipPath></defs></svg><svg width="38" height="38" viewBox="0 0 38 38" fill="none" xmlns="http://www.w3.org/2000/svg" x="32"><path d="M19.7028 7.93757C19.8477 8.18938 19.9726 8.45146 20.0774 8.72382C22.2126 7.58761 24.5729 7.43807 26.6264 8.2274C29.9101 9.49157 31.9544 12.9788 31.0541 17.4836C31.0098 17.7055 30.9172 17.915 30.7829 18.0971C30.6486 18.2793 30.4759 18.4296 30.2769 18.5374C30.078 18.6453 29.8577 18.708 29.6318 18.7212C29.4059 18.7344 29.1798 18.6976 28.9697 18.6136L21.6869 15.6999C22.6658 19.1979 22.7661 22.7576 22.6011 25.5588C22.4812 27.5295 22.2101 29.488 21.7902 31.4172C21.7044 31.751 21.5112 32.0475 21.2405 32.2608C20.9697 32.4742 20.6364 32.5927 20.2917 32.5981H16.4375C16.1749 32.5981 15.9167 32.531 15.6873 32.4032C15.4578 32.2754 15.2649 32.0911 15.1267 31.8678C14.9885 31.6445 14.9096 31.3896 14.8975 31.1273C14.8855 30.8649 14.9406 30.6039 15.0577 30.3688C15.7576 28.9659 16.2201 27.4088 16.5747 25.8887C17.1606 23.3774 17.4936 20.1846 16.7412 16.9779L8.39001 22.3429C8.1724 22.4824 7.9232 22.565 7.66533 22.583C7.40746 22.601 7.14921 22.5538 6.91433 22.4459C6.67944 22.338 6.47546 22.1727 6.32115 21.9653C6.16684 21.758 6.06716 21.5151 6.03126 21.2591C5.4516 17.1074 7.1351 13.4105 9.99335 11.4664C10.1249 11.377 10.2585 11.2912 10.3942 11.209L7.44035 10.1545C7.19541 10.0671 6.97657 9.91916 6.80417 9.72445C6.63178 9.52974 6.51144 9.29459 6.45436 9.04087C6.39728 8.78716 6.40531 8.52313 6.4777 8.27334C6.55009 8.02356 6.68449 7.79616 6.86839 7.61228C9.57093 4.90974 13.2586 4.15432 16.1538 5.11941C17.6123 5.60657 18.9088 6.54699 19.7028 7.93757Z" fill="#2A9E37" /></svg></svg>