<svg width="41" height="41" viewBox="0 0 41 41" fill="none" xmlns="http://www.w3.org/2000/svg">
<path d="M28.1875 8.54172C26.6834 8.54053 25.2072 8.94795 23.9167 9.72047C22.981 7.57273 21.3378 5.81034 19.2607 4.72677C17.1836 3.64319 14.798 3.30383 12.5012 3.7652C10.2043 4.22657 8.13485 5.46081 6.63732 7.26241C5.1398 9.06401 4.30461 11.3242 4.27084 13.6667V20.5001C4.2733 22.9206 5.13226 25.2621 6.69563 27.11C8.25899 28.9579 10.4259 30.1929 12.8125 30.5963V35.8751C12.8125 36.3281 12.9925 36.7627 13.3129 37.083C13.6332 37.4034 14.0678 37.5834 14.5208 37.5834C14.9739 37.5834 15.4084 37.4034 15.7288 37.083C16.0492 36.7627 16.2292 36.3281 16.2292 35.8751V30.5963C17.9691 30.2928 19.6033 29.5522 20.9783 28.4438C21.5882 29.4227 22.3901 30.2679 23.3355 30.9285C24.2809 31.5891 25.3503 32.0514 26.4792 32.2876V35.8751C26.4792 36.3281 26.6592 36.7627 26.9795 37.083C27.2999 37.4034 27.7344 37.5834 28.1875 37.5834C28.6406 37.5834 29.0751 37.4034 29.3955 37.083C29.7159 36.7627 29.8958 36.3281 29.8958 35.8751V32.2876C31.8252 31.8937 33.5592 30.8454 34.8044 29.32C36.0496 27.7946 36.7296 25.8858 36.7292 23.9167V17.0834C36.7292 14.818 35.8293 12.6454 34.2274 11.0435C32.6255 9.44165 30.4529 8.54172 28.1875 8.54172ZM19.6458 17.0834V23.9167C19.6614 24.243 19.6956 24.5681 19.7483 24.8905C18.8347 25.9786 17.6046 26.7549 16.2292 27.1113V22.2084C16.2292 21.7553 16.0492 21.3208 15.7288 21.0004C15.4084 20.68 14.9739 20.5001 14.5208 20.5001C14.0678 20.5001 13.6332 20.68 13.3129 21.0004C12.9925 21.3208 12.8125 21.7553 12.8125 22.2084V27.0942C11.3494 26.7164 10.0527 25.8643 9.1254 24.6712C8.19808 23.478 7.69242 22.0112 7.68751 20.5001V13.6667C7.68305 12.313 8.08079 10.9884 8.83027 9.86107C9.57975 8.73372 10.6472 7.85439 11.8972 7.33462C13.1472 6.81486 14.5234 6.67809 15.8512 6.94166C17.1791 7.20523 18.3987 7.85727 19.3554 8.81505C20.2802 9.75231 20.9098 10.9402 21.1663 12.2317C20.1787 13.6571 19.6484 15.3493 19.6458 17.0834ZM33.3125 23.9167C33.3095 24.9741 32.9796 26.0046 32.3679 26.8671C31.7562 27.7296 30.8927 28.3818 29.8958 28.7342V22.2084C29.8958 21.7553 29.7159 21.3208 29.3955 21.0004C29.0751 20.68 28.6406 20.5001 28.1875 20.5001C27.7344 20.5001 27.2999 20.68 26.9795 21.0004C26.6592 21.3208 26.4792 21.7553 26.4792 22.2084V28.7342C25.4823 28.3818 24.6188 27.7296 24.0071 26.8671C23.3954 26.0046 23.0655 24.9741 23.0625 23.9167V17.0834C23.0625 15.7242 23.6025 14.4206 24.5636 13.4595C25.5247 12.4983 26.8283 11.9584 28.1875 11.9584C29.5467 11.9584 30.8503 12.4983 31.8114 13.4595C32.7726 14.4206 33.3125 15.7242 33.3125 17.0834V23.9167Z" fill="#2A9E37"/>
</svg>
