<svg width="40" height="40" viewBox="0 0 40 40" fill="none" xmlns="http://www.w3.org/2000/svg">
<path d="M13.275 1.22314C12.4537 2.5276 11.5256 3.88393 10.0181 5.16635C10.0541 5.20127 10.0911 5.23588 10.1279 5.27072L11.9677 5.239L11.6922 6.07494C11.6525 6.19494 11.6088 6.31355 11.5611 6.43057C11.7877 6.58792 12.0189 6.73871 12.2542 6.88275L14.2114 8.08041L10.6184 8.01846C10.4658 8.21174 10.3012 8.40127 10.1259 8.58682C10.8134 9.48658 11.8481 10.3613 13.1473 11.1467L12.1783 11.1181L12.1771 11.5617C12.8435 12.0585 13.5671 12.5342 14.2991 13.0055C15.714 12.1017 16.7827 11.0914 17.3859 10.0667L12.9052 10.1441L14.8623 8.94643C15.5631 8.51768 16.1534 8.07807 16.6656 7.62869C16.2673 7.20096 15.9625 6.77229 15.7862 6.32479L15.4705 5.52432L17.7941 5.38189C16.0266 4.25096 14.2531 2.99314 13.275 1.22314ZM31.6035 2.25619C31.0928 3.26885 30.5191 4.52307 29.7568 5.74291C30.6105 7.17783 31.6652 8.55518 33.4109 9.83525L35.0062 11.0048L30.9039 10.92C31.4473 11.8681 32.4614 13.0183 33.6055 14.0487C35.1021 15.3967 36.803 16.5934 37.8169 17.167L38.7029 17.6684C38.7033 17.3431 38.7033 17.0917 38.7041 16.5768C37.3622 15.6442 36.3785 14.5616 35.8664 13.2799L35.5449 12.4754L38.9516 12.2738C38.1773 11.9334 37.4088 11.6283 36.7076 11.3317C36.0437 11.0509 35.4396 10.7764 34.9323 10.4543C34.4248 10.1323 33.9868 9.75479 33.7715 9.20877L33.4644 8.43049L36.283 8.18221C34.3888 6.60205 32.5937 4.37314 31.6035 2.25619ZM6.5646 2.70486C5.58648 4.47486 3.81304 5.73275 2.04562 6.86377L4.3689 7.00611L4.05351 7.80643C3.68007 8.75369 2.73984 9.69104 1.46117 10.6871C1.43812 11.5629 1.43054 12.0668 1.43109 12.0724C1.43148 12.0759 1.44593 12.1584 1.45374 12.3167C1.45671 12.3747 1.45687 12.5649 1.4589 12.6572L2.53921 12.7195L2.5389 12.7624L2.23374 13.5263C2.14156 13.7572 2.03859 14.0006 1.90874 14.2476L2.80913 13.6968C5.72913 11.9101 6.7482 9.93408 8.07437 7.85049L8.05617 8.34783L8.4057 8.20135C8.30644 7.99203 8.22021 7.77677 8.14749 7.55682L7.87187 6.72088L9.94859 6.75682C8.36468 5.44236 7.40906 4.04604 6.5646 2.70471V2.70486ZM20.5516 4.76861C19.7072 6.10986 18.7516 7.50611 17.1677 8.82018L19.2444 8.78439L18.9688 9.62033C18.4487 11.1975 17.1898 12.5805 15.463 13.7539L16.8627 14.6581L18.2903 14.7118L17.9679 15.5321C17.7878 15.9902 17.5495 16.4228 17.264 16.8329L17.9466 16.3493C19.346 15.3579 20.8194 14.2013 21.9934 13.1045C22.7767 12.3728 23.398 11.6576 23.7968 11.0799L19.8486 10.7897L21.1377 9.79182C21.9478 9.16471 22.7762 8.5465 23.5536 7.90291C22.3434 7.02432 21.2466 6.02604 20.5518 4.76854L20.5516 4.76861ZM27.8226 4.82174C26.8258 6.91588 24.9924 8.41861 23.2049 9.78314L25.6573 9.9633L25.4077 10.7231C25.0559 11.7935 24.0809 12.8647 22.8466 14.0178C22.0033 14.8056 21.0305 15.603 20.0422 16.3558L23.892 16.6288L23.6373 17.3928C22.7566 20.0339 19.9776 21.84 17.7142 23.2988C18.7679 23.9282 19.8759 24.5051 20.8246 25.0424C26.1637 26.5128 32.3554 25.5871 36.5218 23.7924C35.4913 23.2023 34.659 22.656 33.9634 21.9951C33.0411 21.1188 32.3952 20.0451 31.9026 18.5433L31.6669 17.8239L35.7271 17.3075C34.7994 16.6661 33.7607 15.8708 32.7687 14.9774C31.1976 13.5624 29.7692 12.0085 29.3379 10.441L29.1156 9.63299L31.2927 9.67807C29.6385 8.1101 28.6723 6.43705 27.8227 4.82182L27.8226 4.82174ZM8.49843 9.51893C7.65413 10.8602 6.69859 12.2564 5.1146 13.5705L7.19132 13.5349L6.91554 14.3706C6.27179 16.3235 4.4957 17.9788 2.10109 19.3069L6.23703 19.4624L5.91468 20.2824C5.0514 22.4785 3.58968 24.421 1.14609 25.8749C6.91835 27.6379 13.3784 28.3412 19.2384 25.5959C18.23 25.0447 17.1369 24.4511 16.0877 23.7553C14.6759 22.8191 13.3904 21.7446 12.8291 20.3402L12.5075 19.5355L16.2887 19.3117C15.3647 18.716 14.4594 18.1024 13.6671 17.4849C12.398 16.4956 11.3968 15.6032 11.0093 14.6206L10.6937 13.82L13.0171 13.6776C11.2499 12.5467 9.47663 11.2888 8.49835 9.519L8.49843 9.51893ZM5.33281 14.8171L1.50343 14.883C1.49031 14.9 1.47843 14.9174 1.46499 14.9342C1.44343 16.6135 1.42999 17.5424 1.42578 18.2452C3.24937 17.2251 4.6182 16.0313 5.33281 14.8171ZM13.5886 15.786C13.862 16.0341 14.1447 16.2719 14.4359 16.4988C14.7218 16.7208 15.0119 16.9372 15.3062 17.1479C15.7312 16.7435 16.094 16.3241 16.3759 15.8907L13.5886 15.786ZM16.8431 17.382C16.6949 17.5573 16.5399 17.7268 16.3785 17.8901C17.1049 18.374 17.8442 18.8381 18.5957 19.2819L19.9742 20.0965C20.8601 19.3606 21.6254 18.5791 22.1004 17.7549L16.8431 17.382ZM38.7027 18.1893L33.3603 18.8688C33.7248 19.7634 34.1452 20.4118 34.7103 20.9776L34.6939 20.2276C36.0576 20.1498 37.4052 19.9657 38.7095 19.6524C38.7044 19.0919 38.703 18.6821 38.7027 18.1893ZM19.6434 20.3653L14.4563 20.6721C14.7612 21.0774 15.1661 21.4788 15.6358 21.8685C16.1405 21.9699 16.6473 22.0611 17.1557 22.1423C17.9868 21.586 18.8526 20.9928 19.6434 20.3653ZM2.47585 20.5715L2.4532 23.3542C3.29273 22.544 3.91351 21.6378 4.39304 20.6437L2.47585 20.5715ZM34.8155 25.7695C33.7012 26.1271 32.5094 26.4254 31.2701 26.6462L31.7037 36.9728H35.0614L34.8155 25.7695ZM20.61 26.3165C20.403 26.4255 20.1942 26.5309 19.9836 26.6326L19.9112 35.5603H24.0269L23.8374 26.9278C22.7479 26.8065 21.6665 26.6056 20.6098 26.3165H20.61ZM30.0272 26.8394C28.8487 26.995 27.638 27.0777 26.4194 27.0733L26.3892 37.9906H30.4955L30.0272 26.8394ZM2.41937 27.5539L2.34718 36.4633H5.80546L5.95976 28.3072C4.7596 28.1147 3.57617 27.858 2.41929 27.5538L2.41937 27.5539ZM16.0694 28.0438C15.165 28.268 14.2548 28.4293 13.343 28.5347L13.6488 33.7062H16.232L16.0692 28.0437L16.0694 28.0438ZM7.20663 28.4835L7.0107 38.8397L12.6898 38.661L12.0973 28.6446C10.459 28.7454 8.82101 28.6778 7.20663 28.4835V28.4835Z" fill="#2A9E37"/>
</svg>
