<svg width="38" height="38" viewBox="0 0 38 38" fill="none" xmlns="http://www.w3.org/2000/svg">
<path d="M19.7028 7.93757C19.8477 8.18938 19.9726 8.45146 20.0774 8.72382C22.2126 7.58761 24.5729 7.43807 26.6264 8.2274C29.9101 9.49157 31.9544 12.9788 31.0541 17.4836C31.0098 17.7055 30.9172 17.915 30.7829 18.0971C30.6486 18.2793 30.4759 18.4296 30.2769 18.5374C30.078 18.6453 29.8577 18.708 29.6318 18.7212C29.4059 18.7344 29.1798 18.6976 28.9697 18.6136L21.6869 15.6999C22.6658 19.1979 22.7661 22.7576 22.6011 25.5588C22.4812 27.5295 22.2101 29.488 21.7902 31.4172C21.7044 31.751 21.5112 32.0475 21.2405 32.2608C20.9697 32.4742 20.6364 32.5927 20.2917 32.5981H16.4375C16.1749 32.5981 15.9167 32.531 15.6873 32.4032C15.4578 32.2754 15.2649 32.0911 15.1267 31.8678C14.9885 31.6445 14.9096 31.3896 14.8975 31.1273C14.8855 30.8649 14.9406 30.6039 15.0577 30.3688C15.7576 28.9659 16.2201 27.4088 16.5747 25.8887C17.1606 23.3774 17.4936 20.1846 16.7412 16.9779L8.39001 22.3429C8.1724 22.4824 7.9232 22.565 7.66533 22.583C7.40746 22.601 7.14921 22.5538 6.91433 22.4459C6.67944 22.338 6.47546 22.1727 6.32115 21.9653C6.16684 21.758 6.06716 21.5151 6.03126 21.2591C5.4516 17.1074 7.1351 13.4105 9.99335 11.4664C10.1249 11.377 10.2585 11.2912 10.3942 11.209L7.44035 10.1545C7.19541 10.0671 6.97657 9.91916 6.80417 9.72445C6.63178 9.52974 6.51144 9.29459 6.45436 9.04087C6.39728 8.78716 6.40531 8.52313 6.4777 8.27334C6.55009 8.02356 6.68449 7.79616 6.86839 7.61228C9.57093 4.90974 13.2586 4.15432 16.1538 5.11941C17.6123 5.60657 18.9088 6.54699 19.7028 7.93757Z" fill="#2A9E37"/>
</svg>
