<svg width="40" height="40" viewBox="0 0 40 40" fill="none" xmlns="http://www.w3.org/2000/svg">
<path d="M25.5895 18.7212C25.5895 18.7212 20.3422 22.1207 20.3422 28.0791M18.0357 19.7298C16.5941 20.7758 14.5951 20.6264 13.3265 19.3936C11.2122 17.339 11.6351 12.8001 11.6351 12.8001C11.6351 12.8001 16.3058 12.3892 18.4201 14.4438C19.2274 15.2283 19.6118 16.349 19.4388 17.4324" stroke="white" stroke-width="2" stroke-linecap="round" stroke-linejoin="round"/>
<path d="M22.9364 21.112C21.7831 19.8792 21.8215 17.9927 23.0325 16.8159C24.9161 14.9855 29.0678 15.359 29.0678 15.359C29.0678 15.359 29.4522 19.3936 27.5686 21.224C26.9343 21.8404 26.0694 22.1766 25.166 22.1393M15.0942 16.1622C15.0942 16.1622 20.3415 20.4209 20.3415 28.0604" stroke="white" stroke-width="2" stroke-linecap="round" stroke-linejoin="round"/>
<path d="M20 2.5L6 7.75V20C6 27 10.6725 32.8275 20 37.5C29.3275 32.8275 34 27 34 20V7.75L20 2.5Z" stroke="white" stroke-width="2" stroke-linecap="round" stroke-linejoin="round"/>
</svg>
