<svg width="144" height="26" viewBox="0 0 144 26" fill="none" xmlns="http://www.w3.org/2000/svg">
<g clip-path="url(#clip0_463_22)">
<path d="M24.8203 11.7664C26.1771 23.8854 10.3802 30.2999 3.02107 20.4464C-4.56267 10.2905 6.30298 -3.13902 17.8734 2.01285C20.3617 3.12085 23.305 5.93493 23.8439 8.64318L21.2978 9.49916C16.7211 -1.2078 0.628369 4.39265 3.7611 15.7355C6.38679 25.2438 20.5888 24.2105 21.9264 14.4486H12.7092L12.7629 11.7664H24.8203Z" fill="white"/>
<path d="M50.2207 0.5L67.6896 18.3111V1.46435L70.6907 1.46771V25.5L53.221 7.68894V24.749H50.2224L50.2207 0.5Z" fill="white"/>
<path d="M106.979 2.58498C107.341 2.89411 108.15 3.99707 108.29 4.50108L105.964 5.851C104.428 1.81888 96.8714 4.11215 98.8325 8.21651C100.307 11.3011 108.467 10.577 109.15 16.8789C110.235 26.881 95.6897 28.3645 94.6069 18.6496L97.4731 18.1061C97.9106 24.403 107.173 23.5176 106.157 17.0863C105.492 12.8753 96.1188 13.502 95.5674 7.62346C95 1.57107 102.786 -0.991006 106.979 2.58498Z" fill="white"/>
<path d="M139.564 4.8319C136.973 2.51511 132.004 4.16996 132.879 7.82323C133.612 10.8851 142.172 10.5147 143.323 16.3587C145.301 26.4088 130.089 28.7533 128.828 18.741L131.616 17.9892C131.952 19.3685 132.288 20.7731 133.548 21.6383C136.818 23.8837 141.002 21.1586 140.453 17.3004C139.825 12.8802 131.074 13.5068 129.97 8.37429C128.371 0.93418 139.358 -1.82194 142.59 4.3346L140.385 5.84749C140.132 5.44428 139.793 5.03602 139.564 4.8319Z" fill="white"/>
<path d="M113.721 1.46606L119.507 11.1238L125.189 1.46606H128.35L120.955 14.5024V24.7491H117.955V14.7166L110.56 1.46606H113.721Z" fill="white"/>
<path d="M28.9998 1.46606H45.9339V4.25579L28.9998 4.25243V1.46606Z" fill="white"/>
<path d="M45.8258 11.6589H28.9998V14.4487H45.8258V11.6589Z" fill="white"/>
<path d="M92.018 1.46606H75.0847V4.25579H92.018V1.46606Z" fill="white"/>
<path d="M91.9116 14.4487H75.0847V11.6589H91.9133L91.9116 14.4487Z" fill="white"/>
<path d="M45.9332 22.0669H29.0007V24.7491H45.9332V22.0669Z" fill="white"/>
<path d="M92.018 22.0669H75.0847V24.7491H92.018V22.0669Z" fill="white"/>
</g>
<defs>
<clipPath id="clip0_463_22">
<rect width="143" height="25" fill="white" transform="translate(0.5 0.5)"/>
</clipPath>
</defs>
</svg>
