<svg width="27" height="26" viewBox="0 0 27 26" fill="none" xmlns="http://www.w3.org/2000/svg">
<path d="M19.2726 3.84583C18.8093 3.84303 18.3573 3.98881 17.9829 4.26178C17.6086 4.53475 17.3316 4.92053 17.1926 5.3625L16.3259 8.125C15.9268 8.13971 15.5339 8.22785 15.1667 8.385L13.1842 6.25083L11.7434 4.6475C11.5332 4.84004 11.3631 5.07218 11.2427 5.33059C11.1224 5.58901 11.0542 5.86863 11.0421 6.15344C11.0301 6.43824 11.0743 6.72263 11.1723 6.99031C11.2704 7.25799 11.4203 7.50369 11.6134 7.71333L13.5742 9.8475C13.4779 10.0239 13.3981 10.2089 13.3359 10.4C13.279 10.5874 13.2391 10.7796 13.2167 10.9742L10.3892 11.6025L8.26591 12.0792C8.32743 12.3575 8.44326 12.6209 8.60677 12.8544C8.77028 13.0879 8.97826 13.2868 9.21878 13.4398C9.4593 13.5928 9.72764 13.6968 10.0084 13.7459C10.2892 13.7949 10.5769 13.7881 10.8551 13.7258L13.6826 13.0867C13.8936 13.426 14.1654 13.7234 14.4842 13.9642L13.6176 16.7267L12.9676 18.7958C13.5149 18.9655 14.1072 18.9115 14.6148 18.6455C15.1224 18.3795 15.5039 17.9233 15.6759 17.3767L16.5534 14.625C16.9525 14.6103 17.3454 14.5222 17.7126 14.365L19.6842 16.4992L21.1251 18.0917C21.5479 17.7046 21.8001 17.1658 21.8265 16.5933C21.8529 16.0207 21.6513 15.461 21.2659 15.0367L19.3051 12.9025C19.3977 12.7257 19.4739 12.5408 19.5326 12.35C19.6012 12.1601 19.652 11.9643 19.6842 11.765L22.4901 11.1367L24.6026 10.6708C24.4782 10.111 24.137 9.62336 23.6537 9.3147C23.1704 9.00604 22.5844 8.90156 22.0242 9.02417L19.1967 9.6525C18.9847 9.31709 18.713 9.02336 18.3951 8.78583L19.2617 6.0125L19.9117 3.95417C19.7053 3.88621 19.4899 3.84969 19.2726 3.84583ZM16.4992 9.75C16.6428 9.75648 16.7849 9.78198 16.9217 9.82583C17.3325 9.95534 17.675 10.2426 17.874 10.6245C18.0731 11.0064 18.1124 11.4516 17.9834 11.8625C17.8539 12.2732 17.5667 12.6157 17.1848 12.8148C16.8029 13.0139 16.3576 13.0532 15.9467 12.9242C15.536 12.7947 15.1935 12.5074 14.9944 12.1255C14.7954 11.7437 14.756 11.2984 14.8851 10.8875C14.9914 10.5488 15.2057 10.2542 15.4952 10.0488C15.7848 9.84339 16.1336 9.73844 16.4884 9.75M9.39258 14.8092C8.07091 15.7408 6.56508 16.25 5.05924 16.25H2.89258V18.4167H5.05924C6.54341 18.4167 8.02758 18.0375 9.39258 17.3333C10.2267 17.7667 11.1042 18.0483 12.0034 18.2108L12.5776 16.4017L12.6751 16.12C11.5267 15.9575 10.4001 15.5133 9.39258 14.8092ZM22.8801 16.25C22.9342 17.0083 22.7501 17.7775 22.2951 18.4167H24.5592V16.25H22.8801ZM9.39258 19.1425C8.07091 20.0742 6.56508 20.5833 5.05924 20.5833H2.89258V22.75H5.05924C6.54341 22.75 8.02758 22.3708 9.39258 21.6667C12.1009 23.075 15.3509 23.075 18.0592 21.6667C19.4242 22.3708 20.8976 22.75 22.3926 22.75H24.5592V20.5833H22.3926C20.8867 20.5833 19.3809 20.0742 18.0592 19.1425C15.4159 20.995 12.0359 20.995 9.39258 19.1425Z" fill="white"/>
</svg>
