<svg width="14" height="14" viewBox="0 0 14 14" fill="none" xmlns="http://www.w3.org/2000/svg">
<path d="M7.00001 0C8.85666 0 10.6373 0.737551 11.9501 2.0504C13.263 3.36325 14.0005 5.14385 14.0005 7.0005C14.0005 8.85715 13.263 10.6378 11.9501 11.9506C10.6373 13.2634 8.85666 14.001 7.00001 14.001C5.14336 14.001 3.36276 13.2634 2.04991 11.9506C0.737062 10.6378 -0.000488281 8.85715 -0.000488281 7.0005C-0.000488281 5.14385 0.737062 3.36325 2.04991 2.0504C3.36276 0.737551 5.14336 0 7.00001 0ZM8.05001 4.298C8.57001 4.298 8.99201 3.937 8.99201 3.402C8.99201 2.867 8.56901 2.506 8.05001 2.506C7.53001 2.506 7.11001 2.867 7.11001 3.402C7.11001 3.937 7.53001 4.298 8.05001 4.298ZM8.23301 9.925C8.23301 9.818 8.27001 9.54 8.24901 9.382L7.42701 10.328C7.25701 10.507 7.04401 10.631 6.94401 10.598C6.89864 10.5813 6.86072 10.549 6.83707 10.5068C6.81342 10.4646 6.8056 10.4154 6.81501 10.368L8.18501 6.04C8.29701 5.491 7.98901 4.99 7.33601 4.926C6.64701 4.926 5.63301 5.625 5.01601 6.512C5.01601 6.618 4.99601 6.882 5.01701 7.04L5.83801 6.093C6.00801 5.916 6.20601 5.791 6.30601 5.825C6.35528 5.84268 6.39565 5.87898 6.41846 5.92609C6.44127 5.97321 6.4447 6.02739 6.42801 6.077L5.07001 10.384C4.91301 10.888 5.21001 11.382 5.93001 11.494C6.99001 11.494 7.61601 10.812 8.23401 9.925H8.23301Z" fill="#0B2B26"/>
</svg>
