<svg width="27" height="26" viewBox="0 0 27 26" fill="none" xmlns="http://www.w3.org/2000/svg">
<g clip-path="url(#clip0_1418_1181)">
<path d="M13.7084 5.8656C13.3886 5.86815 13.0832 5.93904 12.8571 6.0632L1.08563 12.5232C0.971485 12.5858 0.880938 12.6601 0.81916 12.7419C0.757383 12.8237 0.725586 12.9114 0.725586 13C0.725586 13.0886 0.757383 13.1763 0.81916 13.2581C0.880938 13.3399 0.971485 13.4142 1.08563 13.4768L12.8571 19.9368C12.9712 19.9994 13.1067 20.0491 13.2558 20.083C13.4049 20.1169 13.5647 20.1344 13.7261 20.1344C13.8874 20.1344 14.0472 20.1169 14.1963 20.083C14.3454 20.0491 14.4809 19.9994 14.595 19.9368L26.3665 13.4768C26.4806 13.4142 26.5712 13.3399 26.6329 13.2581C26.6947 13.1763 26.7265 13.0886 26.7265 13C26.7265 12.9114 26.6947 12.8237 26.6329 12.7419C26.5712 12.6601 26.4806 12.5858 26.3665 12.5232L14.595 6.0632C14.4788 5.99939 14.3405 5.94902 14.1882 5.91508C14.0359 5.88114 13.8727 5.86431 13.7084 5.8656ZM13.7261 7.4932L15.9914 8.73652C15.668 8.86006 15.3546 9.00826 15.0539 9.17982C14.3188 9.59842 13.6348 10.1611 13.2354 10.9052C11.6502 10.6556 10.0307 10.5053 8.43375 10.3974L13.7261 7.4932ZM17.7033 9.6759L23.761 13L21.7749 14.0897C19.7435 12.5661 17.2691 11.6873 14.6402 11.1543C14.9049 10.8488 15.2775 10.5485 15.6969 10.3095C16.3287 9.94994 17.0585 9.7305 17.5072 9.71048C17.574 9.70909 17.6401 9.69742 17.7033 9.6759ZM6.31709 11.5593C6.36013 11.5706 6.40422 11.5774 6.44865 11.5796C11.4994 11.8578 16.8619 12.3539 20.5079 14.7849L19.6411 15.2607C17.6671 13.987 15.4025 13.0627 12.5875 13.2088C10.9089 13.2959 9.03331 13.7665 6.90911 14.7657L3.69161 13L6.31709 11.5593ZM13.4042 14.4401C15.2944 14.476 16.8564 15.099 18.3338 15.9783L13.7261 18.5068L8.33807 15.5498C10.2948 14.7324 11.9469 14.4126 13.4042 14.4401Z" fill="white"/>
</g>
<defs>
<clipPath id="clip0_1418_1181">
<rect width="26" height="26" fill="white" transform="translate(0.726074)"/>
</clipPath>
</defs>
</svg>
