<svg width="16" height="24" viewBox="0 0 16 24" fill="none" xmlns="http://www.w3.org/2000/svg">
<path d="M13.2368 5.92054C11.9969 3.81966 10.2365 2.07369 8.12555 0.851008L7.74999 0.633789L7.37443 0.851008C5.22751 2.09 3.44479 3.87259 2.20564 6.01941C0.966488 8.16623 0.314615 10.6015 0.315614 13.0803C0.315614 13.2418 0.318427 13.4058 0.323911 13.5678C0.398536 15.7642 1.23849 17.6123 2.75297 18.9124C3.91191 19.9073 5.3985 20.5147 7.00018 20.6596V23.2502H8.50018V11.2502H6.99999V19.15C4.46574 18.8564 1.94344 17.0661 1.82293 13.5168C1.81796 13.3717 1.81543 13.2249 1.81543 13.0803C1.81991 10.94 2.36653 8.83568 3.4043 6.96375C4.44206 5.09183 5.93713 3.51332 7.74999 2.37552C9.56281 3.51334 11.0578 5.09186 12.0956 6.96378C13.1333 8.8357 13.6799 10.94 13.6844 13.0803C13.6844 13.2249 13.6818 13.3717 13.6769 13.5169C13.5805 16.3562 11.9468 18.0697 9.9998 18.792V20.3795C11.0102 20.0931 11.9471 19.5927 12.747 18.9123C14.2615 17.6122 15.1014 15.7641 15.1761 13.5678C15.1816 13.4058 15.1844 13.2418 15.1844 13.0803C15.1857 10.5627 14.5133 8.09058 13.2368 5.92054Z" fill="black"/>
</svg>
