<svg width="26" height="23" viewBox="0 0 26 23" fill="none" xmlns="http://www.w3.org/2000/svg">
<path d="M4.3746 8.10625C1.9914 7.11375 0.799805 6.6175 0.799805 6C0.799805 5.3825 1.9914 4.8875 4.3746 3.89375L7.74421 2.49C10.1274 1.49625 11.3202 1 12.7998 1C14.2794 1 15.4722 1.49625 17.8554 2.49L21.225 3.89375C23.6082 4.88625 24.7998 5.3825 24.7998 6C24.7998 6.6175 23.6082 7.1125 21.225 8.10625L17.8554 9.51125C15.4722 10.5038 14.2794 11 12.7998 11C11.3202 11 10.1274 10.5038 7.74421 9.51125L4.3746 8.10625Z" stroke="black" stroke-width="1.5"/>
<path opacity="0.5" d="M5.319 9L4.3746 9.39375C1.9914 10.3862 0.799805 10.8837 0.799805 11.5C0.799805 12.1163 1.9914 12.6125 4.3746 13.6063L7.74421 15.0113C10.1274 16.0038 11.3202 16.5 12.7998 16.5C14.2794 16.5 15.4722 16.0038 17.8554 15.0113L21.225 13.6063C23.6082 12.6138 24.7998 12.1163 24.7998 11.5C24.7998 10.8837 23.6082 10.3875 21.225 9.39375L20.2806 9M5.319 14L4.3746 14.3937C1.9914 15.3862 0.799805 15.8837 0.799805 16.5C0.799805 17.1163 1.9914 17.6125 4.3746 18.6062L7.74421 20.0113C10.1274 21.0038 11.3202 21.5 12.7998 21.5C14.2794 21.5 15.4722 21.0038 17.8554 20.01L21.225 18.6062C23.6082 17.6137 24.7998 17.1175 24.7998 16.5C24.7998 15.8837 23.6082 15.3875 21.225 14.3937L20.2806 14" stroke="black" stroke-width="1.5"/>
</svg>
