<svg width="20" height="20" viewBox="0 0 20 20" fill="none" xmlns="http://www.w3.org/2000/svg">
<path d="M17.6355 1.92383L14.8925 1.92871L14.6788 1.92754L14.5728 2.10938L13.2312 4.40918L10.9313 4.41406L9.71307 2.3291L9.61053 2.14473L9.39693 2.14238L6.65404 2.14723L6.4392 2.14598L6.3342 2.32785L5.00607 4.60566L2.44506 4.61055L2.23139 4.60938L2.12521 4.79125L0.754394 7.14234L0.649394 7.32422L0.757988 7.50734L1.97385 9.58859L0.655488 11.8518L0.549316 12.0337L0.657988 12.2168L2.03006 14.5642L2.13135 14.7498L2.34619 14.7509L4.9951 14.7461L6.20721 16.8176L6.30857 17.0031L6.52342 17.0044L9.16381 16.9995L10.3821 19.0845L10.4846 19.2688L10.6983 19.2713L13.4412 19.2664L13.6487 19.27L13.7549 19.0881L15.0891 16.8079L17.6502 16.803L17.8577 16.8067L17.9627 16.6248L19.3408 14.2713L19.4458 14.0894L19.3372 13.9063L17.9651 11.5589L17.8638 11.3745L17.649 11.3721L15.0086 11.377L13.9465 9.56059L15.2332 7.35965L17.6367 7.35477L17.8443 7.35848L17.9492 7.1766L19.3262 4.82309L19.4324 4.64117L19.3237 4.45805L17.9517 2.11063L17.8504 1.92633L17.6355 1.92391L17.6355 1.92383ZM17.4267 2.65258L18.579 4.64844L17.4255 6.62844L15.1025 6.63207L13.9453 4.64359L15.1037 2.65508L17.4267 2.65258ZM4.97924 5.33445L6.13158 7.33031L4.97799 9.31031L2.65494 9.31398L1.49775 7.32543L2.65619 5.33695L4.97924 5.33449V5.33445ZM9.15521 7.60008L10.2697 9.53367L9.08318 11.5698L6.82615 11.5735L5.67381 9.59234L6.83225 7.60379L9.15529 7.60012L9.15521 7.60008ZM13.269 9.84008L14.4165 11.8298L13.2629 13.8111L10.9399 13.8134L9.81807 11.886L11.0119 9.84375L13.269 9.84008ZM17.4401 12.1008L18.5924 14.0967L17.4389 16.0767L15.1159 16.0791L13.9587 14.0918L15.1171 12.1033L17.4402 12.1008H17.4401ZM9.06002 12.3036L10.2087 14.2945L9.05517 16.2745L6.73213 16.2769L5.5749 14.2884L6.72959 12.3072L9.05994 12.3036H9.06002Z" fill="white"/>
</svg>
