<svg width="24" height="24" viewBox="0 0 24 24" fill="none" xmlns="http://www.w3.org/2000/svg">
<path d="M13.9998 20.192V17.77H15.9998V20.27C15.9998 20.4767 15.9298 20.6504 15.7898 20.791C15.6498 20.931 15.4765 21.001 15.2698 21.001H14.8078C14.5785 21.001 14.3865 20.9237 14.2318 20.769C14.0771 20.6144 13.9998 20.422 13.9998 20.192ZM7.99981 20.192V17H3.38281C3.05615 17 2.81815 16.857 2.66881 16.571C2.51881 16.285 2.53281 16.0074 2.71081 15.738L5.84981 11H5.46481C5.14615 11 4.90681 10.858 4.74681 10.574C4.58681 10.29 4.60448 10.0134 4.79981 9.74403L8.32881 4.67503C8.41548 4.55503 8.51948 4.46703 8.64081 4.41103C8.76215 4.35503 8.88348 4.32703 9.00481 4.32703C9.12615 4.32703 9.24548 4.35503 9.36281 4.41103C9.48015 4.46703 9.58281 4.55503 9.67081 4.67503L13.1998 9.74503C13.3945 10.0137 13.4121 10.29 13.2528 10.574C13.0928 10.858 12.8535 11 12.5348 11H12.1498L15.2938 15.739C15.4718 16.0077 15.4861 16.285 15.3368 16.571C15.1875 16.857 14.9495 17 14.6228 17H9.99981V20.27C9.99981 20.4767 9.92981 20.65 9.78981 20.79C9.64981 20.93 9.47648 21 9.26981 21H8.80781C8.57848 21 8.38648 20.9227 8.23181 20.768C8.07715 20.6134 7.99981 20.4214 7.99981 20.192ZM17.0388 17L13.5768 11.77H13.9998C14.3278 11.77 14.5705 11.6257 14.7278 11.337C14.8851 11.0484 14.8661 10.77 14.6708 10.502L12.4708 7.36703L14.3288 4.67503C14.4155 4.55503 14.5195 4.46703 14.6408 4.41103C14.7621 4.35503 14.8835 4.32703 15.0048 4.32703C15.1261 4.32703 15.2455 4.35503 15.3628 4.41103C15.4801 4.46703 15.5828 4.55503 15.6708 4.67503L19.1998 9.74503C19.3945 10.0137 19.4121 10.29 19.2528 10.574C19.0928 10.858 18.8535 11 18.5348 11H18.1498L21.2888 15.739C21.4668 16.0077 21.4808 16.285 21.3308 16.571C21.1815 16.857 20.9435 17 20.6168 17H17.0388Z" fill="white"/>
</svg>
