<svg width="27" height="26" viewBox="0 0 27 26" fill="none" xmlns="http://www.w3.org/2000/svg">
<g clip-path="url(#clip0_1418_1224)">
<path d="M13.7085 5.86559C13.3887 5.86819 13.0835 5.93917 12.8573 6.06319L1.08575 12.5232C0.605531 12.7865 0.605531 13.2135 1.08575 13.4768L12.8573 19.9368C13.3372 20.2002 14.1151 20.2002 14.5951 19.9368L26.3666 13.4768C26.8468 13.2135 26.8468 12.7865 26.3666 12.5232L14.5951 6.06319C14.3603 5.93449 14.0405 5.86299 13.7085 5.86559ZM13.7262 7.49319L16.5472 9.04097C16.1949 9.55655 15.7313 10.0108 15.217 10.5173C14.8127 10.9158 14.3806 11.3498 13.9862 11.8693C13.8409 11.6339 13.6642 11.4194 13.461 11.2317C12.8973 10.7154 11.6301 10.5053 10.9153 10.2731C10.3259 10.0815 9.35219 10.258 9.67693 9.71541L13.7262 7.49319ZM17.6896 9.66835L22.691 12.4124C21.0324 12.5216 17.6111 12.9714 15.502 14.0897C13.89 13.5405 15.4739 12.091 16.1299 11.4429C16.6621 10.9187 17.2331 10.3727 17.6896 9.66835ZM7.26049 11.0419C8.55477 11.3877 9.91509 11.5796 10.9325 11.9103C11.5146 12.0994 11.966 12.3305 12.232 12.5739C12.4977 12.8175 12.623 13.0346 12.6433 13.4779C12.6833 14.3577 12.8628 15.2255 13.175 16.049C12.8554 16.9946 12.44 17.4364 12.1498 17.6415L3.69173 13L7.26049 11.0419Z" fill="white"/>
</g>
<defs>
<clipPath id="clip0_1418_1224">
<rect width="26" height="26" fill="white" transform="translate(0.726074)"/>
</clipPath>
</defs>
</svg>
