<svg width="38" height="39" viewBox="0 0 38 39" fill="none" xmlns="http://www.w3.org/2000/svg">
<path d="M6.33332 3.25H31.6667C33.4083 3.25 34.8333 4.7125 34.8333 6.5V16.25H15.8333V32.5H23.0375C23.3225 32.9875 23.6075 33.4425 23.8925 33.865C24.3517 34.5637 24.795 35.1975 25.2067 35.75H6.33332C4.59166 35.75 3.16666 34.2875 3.16666 32.5V6.5C3.16666 4.7125 4.59166 3.25 6.33332 3.25ZM12.6667 6.5H6.33332V22.75H12.6667V6.5ZM6.33332 26V32.5H12.6667V26H6.33332ZM15.8333 13H31.6667V6.5H15.8333V13ZM29.2917 35.75C29.2917 35.75 28.3733 34.6938 27.2808 33.1663C27.1383 32.955 26.98 32.7275 26.8217 32.5C25.3333 30.3225 23.75 27.4463 23.75 25.1875C23.75 22.1 26.2833 19.5 29.2917 19.5C30.1308 19.5 30.9383 19.7113 31.6667 20.0688C33.5192 20.995 34.8333 22.9613 34.8333 25.1875C34.8333 27.69 32.8858 30.94 31.3025 33.1663C30.21 34.6938 29.2917 35.75 29.2917 35.75ZM27.3917 25.35C27.3917 26.325 28.1833 27.3 29.2917 27.3C30.4 27.3 31.35 26.325 31.1917 25.35C31.1917 24.375 30.2417 23.4 29.2917 23.4C28.3417 23.4 27.3917 24.2125 27.3917 25.35Z" fill="#2A9E37"/>
</svg>
