<svg width="33" height="33" viewBox="0 0 33 33" fill="none" xmlns="http://www.w3.org/2000/svg">
<path d="M2.75 16.4999H5.5M27.5 16.4999H30.25M4.125 27.5137L4.13875 27.4985M8.25 22.0137L8.26375 21.9985M12.375 27.5137L12.3888 27.4985M20.625 27.5137L20.6388 27.4985M24.75 22.0137L24.7638 21.9985M28.875 27.5137L28.8888 27.4985M17.0445 4.6694L21.3125 8.9374C22.2644 9.88925 22.9127 11.102 23.1754 12.4223C23.4381 13.7426 23.3033 15.1112 22.7882 16.3549C22.2731 17.5986 21.4007 18.6616 20.2814 19.4095C19.1621 20.1574 17.8462 20.5566 16.5 20.5566C15.1538 20.5566 13.8379 20.1574 12.7186 19.4095C11.5993 18.6616 10.7269 17.5986 10.2118 16.3549C9.69665 15.1112 9.5619 13.7426 9.82458 12.4223C10.0873 11.102 10.7356 9.88925 11.6875 8.9374L15.9555 4.6694C16.027 4.59789 16.1119 4.54117 16.2053 4.50247C16.2987 4.46377 16.3989 4.44385 16.5 4.44385C16.6011 4.44385 16.7013 4.46377 16.7947 4.50247C16.8881 4.54117 16.973 4.59789 17.0445 4.6694Z" stroke="#2A9E37" stroke-width="1.5" stroke-linecap="round" stroke-linejoin="round"/>
</svg>
