<svg width="27" height="26" viewBox="0 0 27 26" fill="none" xmlns="http://www.w3.org/2000/svg">
<g clip-path="url(#clip0_1418_1220)">
<path d="M22.6636 0C22.4481 0 22.2414 0.0856024 22.089 0.237976C21.9367 0.390349 21.8511 0.597012 21.8511 0.8125C21.8511 1.02799 21.9367 1.23465 22.089 1.38702C22.2414 1.5394 22.4481 1.625 22.6636 1.625H25.1011V6.09375H24.2886C24.0731 6.09375 23.8664 6.17935 23.714 6.33173C23.5617 6.4841 23.4761 6.69076 23.4761 6.90625C23.4761 7.12174 23.5617 7.3284 23.714 7.48077C23.8664 7.63315 24.0731 7.71875 24.2886 7.71875H25.1011V12.1875H22.6636C22.4481 12.1875 22.2414 12.2731 22.089 12.4255C21.9367 12.5778 21.8511 12.7845 21.8511 13C21.8511 13.2155 21.9367 13.4222 22.089 13.5745C22.2414 13.7269 22.4481 13.8125 22.6636 13.8125H25.1011V18.2812H24.2886C24.0731 18.2812 23.8664 18.3669 23.714 18.5192C23.5617 18.6716 23.4761 18.8783 23.4761 19.0938C23.4761 19.3092 23.5617 19.5159 23.714 19.6683C23.8664 19.8206 24.0731 19.9062 24.2886 19.9062H25.1011V24.375H22.6636C22.4481 24.375 22.2414 24.4606 22.089 24.613C21.9367 24.7653 21.8511 24.972 21.8511 25.1875C21.8511 25.403 21.9367 25.6097 22.089 25.762C22.2414 25.9144 22.4481 26 22.6636 26H25.9136C26.1291 26 26.3357 25.9144 26.4881 25.762C26.6405 25.6097 26.7261 25.403 26.7261 25.1875V0.8125C26.7261 0.597012 26.6405 0.390349 26.4881 0.237976C26.3357 0.0856024 26.1291 0 25.9136 0L22.6636 0ZM12.1011 2.4375L12.6926 1.88012C12.6166 1.79946 12.525 1.73519 12.4232 1.69125C12.3215 1.64732 12.2119 1.62466 12.1011 1.62466C11.9903 1.62466 11.8806 1.64732 11.7789 1.69125C11.6772 1.73519 11.5855 1.79946 11.5096 1.88012L11.5063 1.88338L11.4966 1.89475L11.4608 1.93213L11.3308 2.07512C10.6129 2.87302 9.92238 3.6952 9.26057 4.54025C8.01095 6.13762 6.47532 8.31837 5.38495 10.5966C4.57407 12.2915 3.97607 14.1082 3.97607 15.8161C3.97607 20.4977 7.57057 24.375 12.1011 24.375C16.6316 24.375 20.2261 20.4977 20.2261 15.8161C20.2261 14.1099 19.6281 12.2915 18.8172 10.5966C17.7268 8.31837 16.1912 6.13762 14.9416 4.54025C14.2399 3.6446 13.506 2.77465 12.7413 1.93213L12.7056 1.89475L12.6958 1.88338L12.6926 1.88175L12.1011 2.4375ZM12.0751 3.68225L12.1011 3.65137L12.1271 3.68225C12.5171 4.1275 13.0566 4.76613 13.6611 5.54125C14.6539 6.81038 15.8061 8.42725 16.7502 10.1351H7.45357C8.39607 8.42725 9.54982 6.81038 10.5411 5.54125C11.1472 4.76613 11.6867 4.1275 12.0751 3.68225ZM5.60107 15.8161C5.60107 14.5892 5.99757 13.1966 6.63782 11.7601H17.5643C18.2062 13.1966 18.6011 14.5892 18.6011 15.8161C18.6011 19.6901 15.6468 22.75 12.1011 22.75C8.55532 22.75 5.60107 19.6901 5.60107 15.8161Z" fill="white"/>
</g>
<defs>
<clipPath id="clip0_1418_1220">
<rect width="26" height="26" fill="white" transform="translate(0.726074)"/>
</clipPath>
</defs>
</svg>
