<?xml version="1.0" encoding="UTF-8"?>
<svg version="1.1" xmlns="http://www.w3.org/2000/svg" width="512" height="512">
<path d="M0 0 C1.25103516 -0.02900391 1.25103516 -0.02900391 2.52734375 -0.05859375 C8.38181465 1.08704231 11.64919848 6.17034389 15.0625 10.6875 C16.02994487 11.94371453 16.99875087 13.19888171 17.96875 14.453125 C18.47277344 15.10603516 18.97679687 15.75894531 19.49609375 16.43164062 C22.13339347 19.80883116 24.84948889 23.12106115 27.5625 26.4375 C32.07080733 31.96030893 36.51093841 37.52935971 40.8984375 43.1484375 C44.40026247 47.62186708 47.97061164 52.03617202 51.5625 56.4375 C56.06944318 61.96009235 60.51034455 67.52718772 64.89624023 73.14624023 C68.41625146 77.64413846 72.01106888 82.07735702 75.625 86.5 C80.35215275 92.2874487 84.94089776 98.1556909 89.47265625 104.09765625 C92.94778049 108.61491068 96.56982963 113.01290339 100.17578125 117.42578125 C103.68586198 121.72686608 107.14667075 126.06126186 110.5625 130.4375 C114.50435031 135.48603686 118.5127462 140.47512563 122.5625 145.4375 C127.07009973 150.96089685 131.51092642 156.52934436 135.8984375 162.1484375 C139.40026247 166.62186708 142.97061164 171.03617202 146.5625 175.4375 C151.07009973 180.96089685 155.51092642 186.52934436 159.8984375 192.1484375 C163.40026351 196.62186842 166.97066921 201.03612378 170.5625 205.4375 C175.08741159 210.98345819 179.55533042 216.56803845 183.95996094 222.20996094 C186.8559221 225.91586317 189.78966543 229.58836539 192.74682617 233.24560547 C194.75542511 235.73685698 196.74707044 238.24109306 198.73046875 240.75244141 C199.93905312 242.28133608 201.15653065 243.80319029 202.375 245.32421875 C208.34288104 253.18112665 208.34288104 253.18112665 207.7890625 258.33984375 C206.03945868 263.39111928 202.41114742 267.3598871 199.0625 271.4375 C198.0487707 272.69343891 197.03578859 273.94998117 196.0234375 275.20703125 C193.81118168 277.94483582 191.58675174 280.67221847 189.35546875 283.39453125 C186.37581671 287.03844244 183.4573383 290.72604615 180.5625 294.4375 C176.08083655 300.17786432 171.50292778 305.83444061 166.8984375 311.4765625 C163.40719917 315.76201618 159.96431112 320.08079453 156.5625 324.4375 C152.0804989 330.17760668 147.50293443 335.83443246 142.8984375 341.4765625 C139.40719917 345.76201618 135.96431112 350.08079453 132.5625 354.4375 C128.0804989 360.17760668 123.50293443 365.83443246 118.8984375 371.4765625 C114.95063664 376.32244128 111.07451102 381.21920143 107.22875977 386.14624023 C103.70874854 390.64413846 100.11393112 395.07735702 96.5 399.5 C92.61268227 404.25923946 88.78910109 409.05124347 85.0625 413.9375 C80.80042101 419.52586614 76.39610701 424.98378513 71.94921875 430.42578125 C68.43913802 434.72686608 64.97832925 439.06126186 61.5625 443.4375 C57.0806114 449.17769254 52.50293222 454.83443517 47.8984375 460.4765625 C44.40719917 464.76201618 40.96431112 469.08079453 37.5625 473.4375 C33.08827079 479.1676532 28.52222219 484.81771488 23.92041016 490.44580078 C21.21024856 493.76759418 18.52735156 497.10559515 15.8984375 500.4921875 C15.14916992 501.45705078 15.14916992 501.45705078 14.38476562 502.44140625 C13.44450268 503.65702284 12.50807528 504.87561936 11.57617188 506.09765625 C6.87920197 512.17269259 6.87920197 512.17269259 2.7578125 512.7734375 C-1.47052696 512.83769798 -4.1899915 512.85797353 -7.9375 510.75 C-11.05007355 507.15108684 -12.02634026 504.93712362 -11.7421875 500.140625 C-10.81699548 495.88294521 -9.4265455 493.86195746 -6.6875 490.5 C-6.24784912 489.95206787 -5.80819824 489.40413574 -5.35522461 488.83959961 C-3.89597642 487.02763854 -2.41730923 485.23269387 -0.9375 483.4375 C0.11966649 482.13637202 1.17563066 480.83426635 2.23046875 479.53125 C4.4256418 476.82241833 6.62714905 474.11890091 8.83203125 471.41796875 C13.65857691 465.48985189 18.35894441 459.46328497 23.0625 453.4375 C29.36993245 445.35696795 35.7449297 437.3410386 42.22607422 429.39892578 C45.71757316 425.1133874 49.1605478 420.79438616 52.5625 416.4375 C57.0445011 410.69739332 61.62206557 405.04056754 66.2265625 399.3984375 C69.71780083 395.11298382 73.16068888 390.79420547 76.5625 386.4375 C81.0445011 380.69739332 85.62206557 375.04056754 90.2265625 369.3984375 C93.71780083 365.11298382 97.16068888 360.79420547 100.5625 356.4375 C104.50445046 351.38903713 108.51280922 346.39993106 112.5625 341.4375 C117.09004072 335.88831941 121.55765862 330.29834363 125.96875 324.65625 C129.80358548 319.75432986 133.68972341 314.89490682 137.58447266 310.04052734 C140.91737922 305.88165361 144.21741285 301.69865799 147.5 297.5 C151.46450163 292.4323327 155.49574033 287.42340959 159.5625 282.4375 C161.73135795 279.77260784 163.8979794 277.10591627 166.0625 274.4375 C166.59536621 273.78088379 167.12823242 273.12426758 167.67724609 272.44775391 C169.20854771 270.55403638 170.73061926 268.65328844 172.25 266.75 C172.93642578 265.90405273 172.93642578 265.90405273 173.63671875 265.04101562 C177.23255012 260.65392275 177.23255012 260.65392275 179.0625 255.4375 C177.64199805 253.01726839 176.31902659 251.21398708 174.5 249.125 C173.99839355 248.51889893 173.49678711 247.91279785 172.97998047 247.28833008 C171.90486449 245.99087336 170.82223489 244.69961294 169.73291016 243.4140625 C167.00622235 240.18762806 164.35039984 236.90409471 161.6875 233.625 C161.14399902 232.96000488 160.60049805 232.29500977 160.04052734 231.60986328 C156.13360053 226.81432015 152.35730552 221.93221795 148.625 217 C143.62597568 210.397715 138.44616203 203.97365642 133.15478516 197.60400391 C129.07732228 192.69037144 125.09981328 187.71125135 121.17529297 182.67504883 C117.69351718 178.21621165 114.13983451 173.81993134 110.5625 169.4375 C106.05482786 163.91416343 101.61407233 158.34565403 97.2265625 152.7265625 C93.72473753 148.25313292 90.15438836 143.83882798 86.5625 139.4375 C82.05490027 133.91410315 77.61407358 128.34565564 73.2265625 122.7265625 C69.72473649 118.25313158 66.15433079 113.83887622 62.5625 109.4375 C58.03495928 103.88831941 53.56734138 98.29834363 49.15625 92.65625 C45.82095272 88.39287 42.44992566 84.15955605 39.0625 79.9375 C35.21985633 75.14806443 31.40700173 70.33744408 27.625 65.5 C23.66050662 60.43234325 19.62971842 55.42302615 15.5625 50.4375 C10.0818713 43.71505898 4.66605778 36.94823912 -0.64550781 30.09130859 C-1.94367145 28.42960026 -3.26306177 26.78660346 -4.5859375 25.14453125 C-5.41202222 24.09679851 -6.23756888 23.04864126 -7.0625 22 C-7.78695312 21.09378906 -8.51140625 20.18757813 -9.2578125 19.25390625 C-11.2616467 15.8939889 -11.7247934 13.32505252 -11.9375 9.4375 C-9.6981141 3.30865438 -6.68335945 0.01029793 0 0 Z " fill="#000000" transform="translate(156.9375,-0.4375)"/>
<path d="M0 0 C0.84046875 -0.04898438 1.6809375 -0.09796875 2.546875 -0.1484375 C8.82347379 1.06697325 12.77512851 6.96439988 16.4375 11.8125 C17.40222132 13.06389647 18.36706855 14.31519589 19.33203125 15.56640625 C19.81752441 16.20078613 20.30301758 16.83516602 20.80322266 17.48876953 C23.05599206 20.42580909 25.33864515 23.33907179 27.625 26.25 C28.07319092 26.82161865 28.52138184 27.3932373 28.9831543 27.98217773 C33.06670042 33.1750308 37.2369708 38.29548814 41.41357422 43.41357422 C45.36230493 48.26032838 49.2385508 53.1585826 53.0859375 58.0859375 C56.58776247 62.55936708 60.15811164 66.97367202 63.75 71.375 C68.25759973 76.89839685 72.69842642 82.46684436 77.0859375 88.0859375 C80.58776247 92.55936708 84.15811164 96.97367202 87.75 101.375 C92.25759973 106.89839685 96.69842642 112.46684436 101.0859375 118.0859375 C104.58776247 122.55936708 108.15811164 126.97367202 111.75 131.375 C116.25694318 136.89759235 120.69784455 142.46468772 125.08374023 148.08374023 C128.60375146 152.58163846 132.19856888 157.01485702 135.8125 161.4375 C140.53965275 167.2249487 145.12839776 173.0931909 149.66015625 179.03515625 C153.13528049 183.55241068 156.75732963 187.95040339 160.36328125 192.36328125 C163.87336198 196.66436608 167.33417075 200.99876186 170.75 205.375 C174.69185346 210.42354088 178.70041265 215.41248614 182.75 220.375 C207.23552096 250.39722916 207.23552096 250.39722916 207.67578125 258.109375 C206.54731509 264.11405733 201.00753008 269.24932377 197.1875 273.875 C192.9869741 279.00058554 188.82528154 284.14923687 184.75 289.375 C180.26838595 295.11540225 175.69042687 300.77194172 171.0859375 306.4140625 C167.13813664 311.25994128 163.26201102 316.15670143 159.41625977 321.08374023 C155.89624854 325.58163846 152.30143112 330.01485702 148.6875 334.4375 C144.80018227 339.19673946 140.97660109 343.98874347 137.25 348.875 C132.98792101 354.46336614 128.58360701 359.92128513 124.13671875 365.36328125 C120.62663802 369.66436608 117.16582925 373.99876186 113.75 378.375 C109.2681114 384.11519254 104.69043222 389.77193517 100.0859375 395.4140625 C96.59469917 399.69951618 93.15181112 404.01829453 89.75 408.375 C85.2679989 414.11510668 80.69043443 419.77193246 76.0859375 425.4140625 C72.59469917 429.69951618 69.15181112 434.01829453 65.75 438.375 C61.80804835 443.4234644 57.7996258 448.41251462 53.75 453.375 C47.82534029 460.63832952 42.01730184 467.98643615 36.25 475.375 C28.83660024 484.87240087 21.33594767 494.29247539 13.69628906 503.609375 C12.73522584 504.78263787 11.77879977 505.95971518 10.82714844 507.140625 C6.69492355 512.2189994 6.69492355 512.2189994 3.04296875 512.61328125 C-4.03164844 512.81480708 -4.03164844 512.81480708 -7.8125 510.5 C-11.03558295 506.9650058 -11.46569024 504.03299756 -11.3984375 499.33203125 C-10.1478578 493.62908648 -6.02230904 489.51027326 -2.29882812 485.18603516 C-0.13403326 482.6547539 1.95193949 480.06249572 4.04418945 477.47119141 C5.69823531 475.42421443 7.36220581 473.38561538 9.02734375 471.34765625 C11.97842036 467.72345019 14.87434577 464.05918524 17.75 460.375 C22.2318886 454.63480746 26.80956778 448.97806483 31.4140625 443.3359375 C34.90530083 439.05048382 38.34818888 434.73170547 41.75 430.375 C46.2320011 424.63489332 50.80956557 418.97806754 55.4140625 413.3359375 C59.36186336 408.49005872 63.23798898 403.59329857 67.08374023 398.66625977 C70.60375146 394.16836154 74.19856888 389.73514298 77.8125 385.3125 C81.69981773 380.55326054 85.52339891 375.76125653 89.25 370.875 C93.51207899 365.28663386 97.91639299 359.82871487 102.36328125 354.38671875 C105.87336198 350.08563392 109.33417075 345.75123814 112.75 341.375 C117.2318886 335.63480746 121.80956778 329.97806483 126.4140625 324.3359375 C129.90530083 320.05048382 133.34818888 315.73170547 136.75 311.375 C141.2320011 305.63489332 145.80956557 299.97806754 150.4140625 294.3359375 C154.3556665 289.49766529 158.23870467 284.61805421 162.05957031 279.68383789 C164.58921414 276.4317701 167.18424132 273.25500299 169.859375 270.12109375 C170.46458984 269.40373047 171.06980469 268.68636719 171.69335938 267.94726562 C172.87486679 266.55117092 174.06848593 265.16521404 175.27539062 263.79101562 C178.31874419 260.26866987 178.31874419 260.26866987 179.5078125 255.90625 C177.53590722 251.93794372 174.75882208 248.77941844 171.875 245.4375 C170.5859222 243.90996492 169.29817708 242.38130429 168.01171875 240.8515625 C167.37153809 240.09391602 166.73135742 239.33626953 166.07177734 238.55566406 C163.54153822 235.52697258 161.10659146 232.4301889 158.6875 229.3125 C154.76946357 224.28215807 150.78201612 219.31444129 146.75 214.375 C142.24232786 208.85166343 137.80157233 203.28315403 133.4140625 197.6640625 C129.91223753 193.19063292 126.34188836 188.77632798 122.75 184.375 C118.24305682 178.85240765 113.80215545 173.28531228 109.41625977 167.66625977 C105.89624854 163.16836154 102.30143112 158.73514298 98.6875 154.3125 C93.96034725 148.5250513 89.37160224 142.6568091 84.83984375 136.71484375 C81.36471951 132.19758932 77.74267037 127.79959661 74.13671875 123.38671875 C70.62663802 119.08563392 67.16582925 114.75123814 63.75 110.375 C59.80814969 105.32646314 55.7997538 100.33737437 51.75 95.375 C47.24240027 89.85160315 42.80157358 84.28315564 38.4140625 78.6640625 C34.91223753 74.19063292 31.34188836 69.77632798 27.75 65.375 C23.24437075 59.85401768 18.80331049 54.28963004 14.4206543 48.6706543 C11.41434643 44.82705017 8.35222614 41.03386017 5.25854492 37.26025391 C3.06805929 34.58323893 0.89644289 31.89129107 -1.27246094 29.19677734 C-2.61608567 27.5401138 -3.9817043 25.90447147 -5.3515625 24.26953125 C-9.48223959 19.09523786 -11.87010459 15.31103308 -11.2890625 8.54296875 C-10.50601465 5.39375457 -9.12712561 3.54237924 -6.75 1.375 C-4.35961794 0.17980897 -2.66758604 0.10508672 0 0 Z " fill="#000000" transform="translate(10.75,-0.375)"/>
<path d="M0 0 C6.45969955 3.01544861 10.73927652 10.55692695 14.9765625 16.0859375 C18.07378897 20.12147127 21.27826949 24.0635999 24.5 28 C29.00845206 33.52268827 33.44844096 39.09186299 37.8359375 44.7109375 C41.33776247 49.18436708 44.90811164 53.59867202 48.5 58 C53.00759973 63.52339685 57.44842642 69.09184436 61.8359375 74.7109375 C65.33776247 79.18436708 68.90811164 83.59867202 72.5 88 C77.00694318 93.52259235 81.44784455 99.08968772 85.83374023 104.70874023 C89.35375146 109.20663846 92.94856888 113.63985702 96.5625 118.0625 C101.28965275 123.8499487 105.87839776 129.7181909 110.41015625 135.66015625 C113.88528049 140.17741068 117.50732963 144.57540339 121.11328125 148.98828125 C124.62336198 153.28936608 128.08417075 157.62376186 131.5 162 C135.44185031 167.04853686 139.4502462 172.03762563 143.5 177 C148.00759973 182.52339685 152.44842642 188.09184436 156.8359375 193.7109375 C160.33776247 198.18436708 163.90811164 202.59867202 167.5 207 C172.00265865 212.51734229 176.44123963 218.07772935 180.82055664 223.69335938 C184.99298723 229.02847383 189.27325079 234.27385937 193.5859375 239.49609375 C203.08225679 251.07639333 203.08225679 251.07639333 202.75390625 258.18359375 C201.26082974 263.76135625 197.24532364 267.89606605 193.54882812 272.18896484 C191.38403326 274.7202461 189.29806051 277.31250428 187.20581055 279.90380859 C185.55176469 281.95078557 183.88779419 283.98938462 182.22265625 286.02734375 C179.27157964 289.65154981 176.37565423 293.31581476 173.5 297 C169.0181114 302.74019254 164.44043222 308.39693517 159.8359375 314.0390625 C156.34469917 318.32451618 152.90181112 322.64329453 149.5 327 C145.0179989 332.74010668 140.44043443 338.39693246 135.8359375 344.0390625 C131.88813664 348.88494128 128.01201102 353.78170143 124.16625977 358.70874023 C120.64624854 363.20663846 117.05143112 367.63985702 113.4375 372.0625 C109.55018227 376.82173946 105.72660109 381.61374347 102 386.5 C97.73792101 392.08836614 93.33360701 397.54628513 88.88671875 402.98828125 C85.37663802 407.28936608 81.91582925 411.62376186 78.5 416 C74.0181114 421.74019254 69.44043222 427.39693517 64.8359375 433.0390625 C61.34469917 437.32451618 57.90181112 441.64329453 54.5 446 C50.0179989 451.74010668 45.44043443 457.39693246 40.8359375 463.0390625 C37.34469821 467.32451737 33.90185928 471.64333106 30.5 476 C25.95268076 481.82257296 21.31831831 487.5700617 16.64477539 493.29174805 C12.92960568 497.84158621 9.27564607 502.43396355 5.68359375 507.08203125 C3.22775446 509.87975071 1.31762467 511.7429025 -2.40234375 512.46875 C-9.28614193 512.55360421 -9.28614193 512.55360421 -13.0625 509.625 C-15.76135044 505.96849296 -16.16600919 503.81611496 -16.42578125 499.265625 C-15.29731509 493.26094267 -9.75753008 488.12567623 -5.9375 483.5 C-1.7369741 478.37441446 2.42471846 473.22576313 6.5 468 C10.98161405 462.25959775 15.55957313 456.60305828 20.1640625 450.9609375 C24.11186336 446.11505872 27.98798898 441.21829857 31.83374023 436.29125977 C35.35375146 431.79336154 38.94856888 427.36014298 42.5625 422.9375 C46.44981773 418.17826054 50.27339891 413.38625653 54 408.5 C58.26207899 402.91163386 62.66639299 397.45371487 67.11328125 392.01171875 C70.62336198 387.71063392 74.08417075 383.37623814 77.5 379 C81.9818886 373.25980746 86.55956778 367.60306483 91.1640625 361.9609375 C94.65530083 357.67548382 98.09818888 353.35670547 101.5 349 C105.9820011 343.25989332 110.55956557 337.60306754 115.1640625 331.9609375 C118.65530083 327.67548382 122.09818888 323.35670547 125.5 319 C129.44195165 313.9515356 133.4503742 308.96248538 137.5 304 C143.42468348 296.73664134 149.23155531 289.3876938 155 282 C161.5740184 273.58736822 168.19755627 265.23011711 175 257 C173.32198127 253.13774461 170.79660053 250.01321305 168.1875 246.75 C167.70539063 246.1415625 167.22328125 245.533125 166.7265625 244.90625 C162.47486077 239.55628261 158.15881328 234.25856029 153.83862305 228.96386719 C149.88890003 224.11650639 146.01212255 219.21727975 142.1640625 214.2890625 C138.66223753 209.81563292 135.09188836 205.40132798 131.5 201 C126.99240027 195.47660315 122.55157358 189.90815564 118.1640625 184.2890625 C114.66223753 179.81563292 111.09188836 175.40132798 107.5 171 C102.99240027 165.47660315 98.55157358 159.90815564 94.1640625 154.2890625 C90.66223649 149.81563158 87.09183079 145.40137622 83.5 141 C78.97245928 135.45081941 74.50484138 129.86084363 70.09375 124.21875 C66.75845272 119.95537 63.38742566 115.72205605 60 111.5 C56.15735633 106.71056443 52.34450173 101.89994408 48.5625 97.0625 C44.05741077 91.30382072 39.45883855 85.6257169 34.83618164 79.96118164 C30.88758877 75.1144637 27.01137874 70.21632716 23.1640625 65.2890625 C19.66223441 60.81562892 16.0917156 56.40147271 12.5 52 C6.57624114 44.73600051 0.75218632 37.40046136 -5 30 C-5.47163574 29.39397949 -5.94327148 28.78795898 -6.42919922 28.16357422 C-7.83035081 26.36100906 -9.22839086 24.55608616 -10.625 22.75 C-11.05127686 22.20061768 -11.47755371 21.65123535 -11.91674805 21.08520508 C-15.59676107 16.30717869 -16.6651585 13.07978212 -16 7 C-12.65598318 -0.32498922 -7.43802198 -1.2111065 0 0 Z " fill="#32CCCC" transform="translate(310,0)"/>
</svg>
