<?xml version="1.0" encoding="UTF-8"?>
<svg version="1.1" xmlns="http://www.w3.org/2000/svg" width="512" height="512">
<path d="M0 0 C3.12190904 1.75607384 4.49445599 3.2306939 6.4375 6.1875 C7.41962329 11.09811645 6.33943766 15.84058045 3.69750977 20.09985352 C2.05473515 22.20030387 0.33868488 24.19867161 -1.4375 26.1875 C-2.71753343 27.67849736 -3.99616298 29.17070102 -5.2734375 30.6640625 C-5.90733398 31.39657227 -6.54123047 32.12908203 -7.19433594 32.88378906 C-9.74431124 35.8723215 -12.15998768 38.95510724 -14.5625 42.0625 C-18.49681986 47.1175843 -22.50871734 52.10276504 -26.5625 57.0625 C-30.44987895 61.82168711 -34.27340088 66.61374605 -38 71.5 C-42.26207899 77.08836614 -46.66639299 82.54628513 -51.11328125 87.98828125 C-54.62336198 92.28936608 -58.08417075 96.62376186 -61.5 101 C-65.9818886 106.74019254 -70.55956778 112.39693517 -75.1640625 118.0390625 C-78.65530083 122.32451618 -82.09818888 126.64329453 -85.5 131 C-89.9820011 136.74010668 -94.55956557 142.39693246 -99.1640625 148.0390625 C-102.65530083 152.32451618 -106.09818888 156.64329453 -109.5 161 C-113.44195165 166.0484644 -117.4503742 171.03751462 -121.5 176 C-127.42465971 183.26332952 -133.23269816 190.61143615 -139 198 C-144.76730751 205.38857111 -150.57562668 212.73643059 -156.5 220 C-161.51360309 226.14825674 -166.47488688 232.33182499 -171.3359375 238.6015625 C-173.1736404 240.96745104 -175.0581421 243.28508281 -176.9765625 245.5859375 C-177.69066284 246.46149292 -177.69066284 246.46149292 -178.41918945 247.35473633 C-179.32530414 248.46535 -180.24514658 249.56495071 -181.18041992 250.65112305 C-182.57649712 252.30277078 -182.57649712 252.30277078 -184 255 C-183.28348085 260.06562377 -178.78817053 264.14794586 -175.5625 267.9375 C-174.28256632 269.46506768 -173.00393552 270.99372791 -171.7265625 272.5234375 C-171.09266602 273.28108398 -170.45876953 274.03873047 -169.80566406 274.81933594 C-167.29133903 277.85583556 -164.85657799 280.94993492 -162.4375 284.0625 C-158.50175563 289.11650248 -154.49131318 294.10272769 -150.4375 299.0625 C-145.71027267 304.84988519 -141.12159964 310.71819431 -136.58984375 316.66015625 C-133.11471951 321.17741068 -129.49267037 325.57540339 -125.88671875 329.98828125 C-122.37663802 334.28936608 -118.91582925 338.62376186 -115.5 343 C-111.55814969 348.04853686 -107.5497538 353.03762563 -103.5 358 C-98.99240027 363.52339685 -94.55157358 369.09184436 -90.1640625 374.7109375 C-86.66223753 379.18436708 -83.09188836 383.59867202 -79.5 388 C-74.99074343 393.52542706 -70.54727262 399.09516159 -66.15966797 404.7175293 C-62.70625289 409.13105599 -59.17503854 413.47649846 -55.625 417.8125 C-51.15826178 423.27287441 -46.81931705 428.81214341 -42.5625 434.4375 C-37.56347568 441.039785 -32.38366203 447.46384358 -27.09228516 453.83349609 C-23.01981757 458.74110889 -19.04478603 463.71235866 -15.12817383 468.74487305 C-10.97682455 474.06634992 -6.71145701 479.29245943 -2.41381836 484.49633789 C6.87178568 495.81999813 6.87178568 495.81999813 7 503 C5.44850242 507.2462039 3.82878676 509.63596262 0 512 C-2.40234375 512.43359375 -2.40234375 512.43359375 -4.9375 512.4375 C-5.77152344 512.45683594 -6.60554687 512.47617187 -7.46484375 512.49609375 C-13.31931465 511.35045769 -16.58669848 506.26715611 -20 501.75 C-20.96744487 500.49378547 -21.93625087 499.23861829 -22.90625 497.984375 C-23.41027344 497.33146484 -23.91429687 496.67855469 -24.43359375 496.00585938 C-27.07089347 492.62866884 -29.78698889 489.31643885 -32.5 486 C-37.00830733 480.47719107 -41.44843841 474.90814029 -45.8359375 469.2890625 C-49.33776247 464.81563292 -52.90811164 460.40132798 -56.5 456 C-61.00694318 450.47740765 -65.44784455 444.91031228 -69.83374023 439.29125977 C-73.35375146 434.79336154 -76.94856888 430.36014298 -80.5625 425.9375 C-85.28965275 420.1500513 -89.87839776 414.2818091 -94.41015625 408.33984375 C-97.88528049 403.82258932 -101.50732963 399.42459661 -105.11328125 395.01171875 C-108.62336198 390.71063392 -112.08417075 386.37623814 -115.5 382 C-119.44185031 376.95146314 -123.4502462 371.96237437 -127.5 367 C-132.00759973 361.47660315 -136.44842642 355.90815564 -140.8359375 350.2890625 C-144.33776247 345.81563292 -147.90811164 341.40132798 -151.5 337 C-156.00925657 331.47457294 -160.45272738 325.90483841 -164.84033203 320.2824707 C-168.29374711 315.86894401 -171.82496146 311.52350154 -175.375 307.1875 C-180.4005634 301.04398846 -185.24623933 294.78412943 -190.03222656 288.45288086 C-194.65929514 282.36636591 -199.49442075 276.46657803 -204.41967773 270.61938477 C-212.88686415 260.50030424 -212.88686415 260.50030424 -212.5859375 254.2734375 C-211.24255809 249.06112539 -207.35205772 245.0817656 -204 241 C-202.9862707 239.74406109 -201.97328859 238.48751883 -200.9609375 237.23046875 C-198.74868168 234.49266418 -196.52425174 231.76528153 -194.29296875 229.04296875 C-191.31331671 225.39905756 -188.3948383 221.71145385 -185.5 218 C-181.01833655 212.25963568 -176.44042778 206.60305939 -171.8359375 200.9609375 C-168.34469917 196.67548382 -164.90181112 192.35670547 -161.5 188 C-157.0179989 182.25989332 -152.44043443 176.60306754 -147.8359375 170.9609375 C-144.34469917 166.67548382 -140.90181112 162.35670547 -137.5 158 C-133.0179989 152.25989332 -128.44043443 146.60306754 -123.8359375 140.9609375 C-119.88813664 136.11505872 -116.01201102 131.21829857 -112.16625977 126.29125977 C-108.64624854 121.79336154 -105.05143112 117.36014298 -101.4375 112.9375 C-97.55018227 108.17826054 -93.72660109 103.38625653 -90 98.5 C-85.73792101 92.91163386 -81.33360701 87.45371487 -76.88671875 82.01171875 C-73.37663802 77.71063392 -69.91582925 73.37623814 -66.5 69 C-62.0181114 63.25980746 -57.44043222 57.60306483 -52.8359375 51.9609375 C-49.34469917 47.67548382 -45.90181112 43.35670547 -42.5 39 C-38.02577079 33.2698468 -33.45972219 27.61978512 -28.85791016 21.99169922 C-26.14774856 18.66990582 -23.46485156 15.33190485 -20.8359375 11.9453125 C-20.33642578 11.30207031 -19.83691406 10.65882812 -19.32226562 9.99609375 C-18.38200268 8.78047716 -17.44557528 7.56188064 -16.51367188 6.33984375 C-11.61411025 0.00277633 -7.7504467 -1.00285333 0 0 Z " fill="#000000" transform="translate(360,0)"/>
<path d="M0 0 C2.93423195 1.79646854 4.47205355 2.9441071 6 6 C7.14328101 10.90119596 6.81504327 14.62663415 4.2265625 18.98828125 C2.06818527 21.79277464 -0.14305019 24.50844412 -2.45117188 27.18896484 C-4.61596674 29.7202461 -6.70193949 32.31250428 -8.79418945 34.90380859 C-10.44823531 36.95078557 -12.11220581 38.98938462 -13.77734375 41.02734375 C-16.72842036 44.65154981 -19.62434577 48.31581476 -22.5 52 C-26.9818886 57.74019254 -31.55956778 63.39693517 -36.1640625 69.0390625 C-39.65530083 73.32451618 -43.09818888 77.64329453 -46.5 82 C-50.44195165 87.0484644 -54.4503742 92.03751462 -58.5 97 C-64.42465971 104.26332952 -70.23269816 111.61143615 -76 119 C-82.30743245 127.08053205 -88.6824297 135.0964614 -95.16357422 143.03857422 C-98.65507316 147.3241126 -102.0980478 151.64311384 -105.5 156 C-109.9820011 161.74010668 -114.55956557 167.39693246 -119.1640625 173.0390625 C-122.65530083 177.32451618 -126.09818888 181.64329453 -129.5 186 C-133.9820011 191.74010668 -138.55956557 197.39693246 -143.1640625 203.0390625 C-146.65530083 207.32451618 -150.09818888 211.64329453 -153.5 216 C-157.44196866 221.04848618 -161.45131408 226.03672997 -165.5 231 C-167.12896173 233.00414746 -168.75706609 235.00898748 -170.38476562 237.01416016 C-171.46430162 238.34138896 -172.54634919 239.66657872 -173.63085938 240.98974609 C-175.17939506 242.88203407 -176.71585676 244.7835368 -178.25 246.6875 C-178.94899414 247.53344727 -178.94899414 247.53344727 -179.66210938 248.39648438 C-183.14526788 252.71936531 -183.14526788 252.71936531 -184 258 C-182.49174166 260.22866629 -181.06905515 261.99388886 -179.25 263.9375 C-178.21904794 265.09430296 -177.19047003 266.25322538 -176.1640625 267.4140625 C-175.63458008 268.00735352 -175.10509766 268.60064453 -174.55957031 269.21191406 C-172.1349405 271.99181211 -169.88013479 274.89470125 -167.625 277.8125 C-163.64619282 282.92780232 -159.59888068 287.9804087 -155.5 293 C-150.99222351 298.52325006 -146.55157061 304.09184817 -142.1640625 309.7109375 C-138.66223753 314.18436708 -135.09188836 318.59867202 -131.5 323 C-126.99240027 328.52339685 -122.55157358 334.09184436 -118.1640625 339.7109375 C-114.66223649 344.18436842 -111.09183079 348.59862378 -107.5 353 C-102.97245928 358.54918059 -98.50484138 364.13915637 -94.09375 369.78125 C-90.75845272 374.04463 -87.38742566 378.27794395 -84 382.5 C-80.15735633 387.28943557 -76.34450173 392.10005592 -72.5625 396.9375 C-68.05741077 402.69617928 -63.45883855 408.3742831 -58.83618164 414.03881836 C-54.88758877 418.8855363 -51.01137874 423.78367284 -47.1640625 428.7109375 C-43.66223753 433.18436708 -40.09188836 437.59867202 -36.5 442 C-31.9914003 447.52462217 -27.54785522 453.09300661 -23.16186523 458.71533203 C-20.2249631 462.46977701 -17.23542612 466.17601771 -14.21166992 469.86083984 C-12.01570416 472.54281135 -9.84009881 475.24089688 -7.66699219 477.94140625 C-6.53768985 479.3359987 -5.40003057 480.72385792 -4.25488281 482.10546875 C-2.54207427 484.17730647 -0.86267901 486.27268671 0.8125 488.375 C1.33448975 488.9922998 1.85647949 489.60959961 2.39428711 490.24560547 C5.8918584 494.72254424 6.53741411 498.1286277 6.36547852 503.78149414 C5.82755893 507.0467415 4.40876039 508.80377729 2 511 C-0.39038206 512.19519103 -2.08241396 512.26991328 -4.75 512.375 C-5.59046875 512.42398438 -6.4309375 512.47296875 -7.296875 512.5234375 C-13.57347379 511.30802675 -17.52512851 505.41060012 -21.1875 500.5625 C-22.15222132 499.31110353 -23.11706855 498.05980411 -24.08203125 496.80859375 C-24.56752441 496.17421387 -25.05301758 495.53983398 -25.55322266 494.88623047 C-27.80599206 491.94919091 -30.08864515 489.03592821 -32.375 486.125 C-32.82319092 485.55338135 -33.27138184 484.9817627 -33.7331543 484.39282227 C-37.81670042 479.1999692 -41.9869708 474.07951186 -46.16357422 468.96142578 C-50.11230493 464.11467162 -53.9885508 459.2164174 -57.8359375 454.2890625 C-61.33776247 449.81563292 -64.90811164 445.40132798 -68.5 441 C-73.00759973 435.47660315 -77.44842642 429.90815564 -81.8359375 424.2890625 C-85.33776247 419.81563292 -88.90811164 415.40132798 -92.5 411 C-97.00925657 405.47457294 -101.45272738 399.90483841 -105.84033203 394.2824707 C-109.29374711 389.86894401 -112.82496146 385.52350154 -116.375 381.1875 C-120.84173822 375.72712559 -125.18068295 370.18785659 -129.4375 364.5625 C-134.43652432 357.960215 -139.61633797 351.53615642 -144.90771484 345.16650391 C-148.98517772 340.25287144 -152.96268672 335.27375135 -156.88720703 330.23754883 C-160.36898282 325.77871165 -163.92266549 321.38243134 -167.5 317 C-172.00767214 311.47666343 -176.44842767 305.90815403 -180.8359375 300.2890625 C-184.3377683 295.81562547 -187.90843218 291.4015967 -191.5 287 C-195.74084615 281.79635693 -199.96099092 276.57792038 -204.125 271.3125 C-204.57423828 270.74853516 -205.02347656 270.18457031 -205.48632812 269.60351562 C-209.54358308 264.44936839 -212.28937509 260.87162217 -212.49609375 254.16015625 C-211.12689718 248.19822158 -205.77062333 243.14153086 -201.9375 238.5 C-197.7369741 233.37441446 -193.57528154 228.22576313 -189.5 223 C-185.01838595 217.25959775 -180.44042687 211.60305828 -175.8359375 205.9609375 C-172.34469917 201.67548382 -168.90181112 197.35670547 -165.5 193 C-161.55804835 187.9515356 -157.5496258 182.96248538 -153.5 178 C-147.57534029 170.73667048 -141.76730184 163.38856385 -136 156 C-129.69256755 147.91946795 -123.3175703 139.9035386 -116.83642578 131.96142578 C-113.34492684 127.6758874 -109.9019522 123.35688616 -106.5 119 C-102.0179989 113.25989332 -97.44043443 107.60306754 -92.8359375 101.9609375 C-89.34469917 97.67548382 -85.90181112 93.35670547 -82.5 89 C-78.0179989 83.25989332 -73.44043443 77.60306754 -68.8359375 71.9609375 C-64.88582549 67.11222181 -61.00719462 62.21277125 -57.15966797 57.2824707 C-53.70625289 52.86894401 -50.17503854 48.52350154 -46.625 44.1875 C-42.15824649 38.72710689 -37.81976926 33.18753023 -33.5625 27.5625 C-28.94306534 21.47067358 -24.21822047 15.47821529 -19.375 9.5625 C-18.78275635 8.83426025 -18.1905127 8.10602051 -17.58032227 7.35571289 C-17.02530029 6.6827417 -16.47027832 6.00977051 -15.8984375 5.31640625 C-15.16633057 4.42610718 -15.16633057 4.42610718 -14.41943359 3.51782227 C-10.24999354 -0.94062438 -5.71167029 -0.76519985 0 0 Z " fill="#000000" transform="translate(506,0)"/>
<path d="M0 0 C3.62991418 0.70929357 5.23483151 2.55996829 7.37890625 5.46484375 C8.96215382 8.63133888 9.02264861 12.03942569 8.37890625 15.46484375 C5.51963566 20.33921933 1.90571529 24.61854773 -1.68359375 28.96484375 C-5.88411965 34.09042929 -10.04581221 39.23908062 -14.12109375 44.46484375 C-18.6027078 50.205246 -23.18066688 55.86178547 -27.78515625 61.50390625 C-31.27639458 65.78935993 -34.71928263 70.10813828 -38.12109375 74.46484375 C-42.0630454 79.51330815 -46.07146795 84.50235837 -50.12109375 89.46484375 C-56.04575346 96.72817327 -61.85379191 104.0762799 -67.62109375 111.46484375 C-73.9285262 119.5453758 -80.30352345 127.56130515 -86.78466797 135.50341797 C-90.27616691 139.78895635 -93.71914155 144.10795759 -97.12109375 148.46484375 C-101.60309485 154.20495043 -106.18065932 159.86177621 -110.78515625 165.50390625 C-114.27639458 169.78935993 -117.71928263 174.10813828 -121.12109375 178.46484375 C-125.60309485 184.20495043 -130.18065932 189.86177621 -134.78515625 195.50390625 C-138.73526826 200.35262194 -142.61389913 205.2520725 -146.46142578 210.18237305 C-149.91483983 214.59589842 -153.44599625 218.94139121 -156.99609375 223.27734375 C-162.18452476 229.61841469 -167.20553816 236.07203486 -172.13232422 242.6184082 C-175.47765033 247.04598233 -178.97224461 251.28307775 -182.62109375 255.46484375 C-181.37195233 258.11850496 -180.03856158 260.37211564 -178.1875 262.64453125 C-177.70933838 263.23613037 -177.23117676 263.82772949 -176.73852539 264.43725586 C-175.96883423 265.37903687 -175.96883423 265.37903687 -175.18359375 266.33984375 C-174.08926612 267.69224113 -172.99552859 269.0451162 -171.90234375 270.3984375 C-171.350625 271.08019043 -170.79890625 271.76194336 -170.23046875 272.46435547 C-167.85204313 275.42079047 -165.51775453 278.41093357 -163.18359375 281.40234375 C-158.67910678 287.16148277 -154.07992057 292.83914121 -149.45727539 298.50366211 C-145.50868252 303.35038005 -141.63247249 308.24851659 -137.78515625 313.17578125 C-134.28333128 317.64921083 -130.71298211 322.06351577 -127.12109375 326.46484375 C-122.61349402 331.9882406 -118.17266733 337.55668811 -113.78515625 343.17578125 C-110.28333128 347.64921083 -106.71298211 352.06351577 -103.12109375 356.46484375 C-98.61415057 361.9874361 -94.1732492 367.55453147 -89.78735352 373.17358398 C-86.26734229 377.67148221 -82.67252487 382.10470077 -79.05859375 386.52734375 C-74.331441 392.31479245 -69.74269599 398.18303465 -65.2109375 404.125 C-61.73581326 408.64225443 -58.11376412 413.04024714 -54.5078125 417.453125 C-50.99773177 421.75420983 -47.536923 426.08860561 -44.12109375 430.46484375 C-40.17924344 435.51338061 -36.17084755 440.50246938 -32.12109375 445.46484375 C-27.61480739 450.98663126 -23.17382817 456.55237334 -18.78955078 462.17138672 C-15.25135383 466.69376885 -11.63189421 471.14573635 -7.99609375 475.58984375 C8.69565596 496.02318769 8.69565596 496.02318769 8.6015625 503.4296875 C8.2803406 506.36576837 7.198067 508.17404873 5.37890625 510.46484375 C1.07595071 513.33348078 -2.57845639 513.39950299 -7.62109375 512.46484375 C-14.20985501 508.95413419 -18.49141081 501.97056082 -22.85546875 496.12109375 C-25.81607448 492.16789017 -28.92884606 488.34717252 -32.05859375 484.52734375 C-36.13097901 479.54536609 -40.16187504 474.537253 -44.12109375 469.46484375 C-48.06294406 464.41630689 -52.07133995 459.42721812 -56.12109375 454.46484375 C-60.62869348 448.9414469 -65.06952017 443.37299939 -69.45703125 437.75390625 C-72.95885622 433.28047667 -76.52920539 428.86617173 -80.12109375 424.46484375 C-84.62803693 418.9422514 -89.0689383 413.37515603 -93.45483398 407.75610352 C-96.97484521 403.25820529 -100.56966263 398.82498673 -104.18359375 394.40234375 C-108.9107465 388.61489505 -113.49949151 382.74665285 -118.03125 376.8046875 C-121.50637424 372.28743307 -125.12842338 367.88944036 -128.734375 363.4765625 C-132.24445573 359.17547767 -135.7052645 354.84108189 -139.12109375 350.46484375 C-143.06294406 345.41630689 -147.07133995 340.42721812 -151.12109375 335.46484375 C-155.62869348 329.9414469 -160.06952017 324.37299939 -164.45703125 318.75390625 C-167.95885622 314.28047667 -171.52920539 309.86617173 -175.12109375 305.46484375 C-179.6237524 299.94750146 -184.06233338 294.3871144 -188.44165039 288.77148438 C-192.61408098 283.43636992 -196.89434454 278.19098438 -201.20703125 272.96875 C-210.70335054 261.38845042 -210.70335054 261.38845042 -210.375 254.28125 C-208.88192349 248.7034875 -204.86641739 244.5687777 -201.16992188 240.27587891 C-199.00512701 237.74459765 -196.91915426 235.15233947 -194.8269043 232.56103516 C-193.17285844 230.51405818 -191.50888794 228.47545913 -189.84375 226.4375 C-186.89267339 222.81329394 -183.99674798 219.14902899 -181.12109375 215.46484375 C-176.63920515 209.72465121 -172.06152597 204.06790858 -167.45703125 198.42578125 C-163.96579292 194.14032757 -160.52290487 189.82154922 -157.12109375 185.46484375 C-153.1791421 180.41637935 -149.17071955 175.42732913 -145.12109375 170.46484375 C-139.19643404 163.20151423 -133.38839559 155.8534076 -127.62109375 148.46484375 C-121.3136613 140.3843117 -114.93866405 132.36838235 -108.45751953 124.42626953 C-104.96602059 120.14073115 -101.52304595 115.82172991 -98.12109375 111.46484375 C-93.63909265 105.72473707 -89.06152818 100.06791129 -84.45703125 94.42578125 C-80.96579292 90.14032757 -77.52290487 85.82154922 -74.12109375 81.46484375 C-69.63909265 75.72473707 -65.06152818 70.06791129 -60.45703125 64.42578125 C-56.96579292 60.14032757 -53.52290487 55.82154922 -50.12109375 51.46484375 C-46.17914374 46.41638146 -42.17081308 41.42725125 -38.12109375 36.46484375 C-33.96902721 31.37640066 -29.85793789 26.26045738 -25.80859375 21.08984375 C-25.35919434 20.5170166 -24.90979492 19.94418945 -24.44677734 19.35400391 C-22.40204462 16.74578001 -20.36417419 14.13282462 -18.3359375 11.51171875 C-17.64628906 10.63 -16.95664063 9.74828125 -16.24609375 8.83984375 C-15.66085938 8.08445312 -15.075625 7.3290625 -14.47265625 6.55078125 C-9.9006543 1.40004488 -6.80389742 -0.25349841 0 0 Z " fill="#32CCCC" transform="translate(209.62109375,-0.46484375)"/>
</svg>
