<svg width="14" height="17" viewBox="0 0 14 17" fill="none" xmlns="http://www.w3.org/2000/svg">
<path d="M7.70615 1.7937C7.31553 1.40308 6.68115 1.40308 6.29053 1.7937L1.29053 6.7937C0.899902 7.18433 0.899902 7.8187 1.29053 8.20933C1.68115 8.59995 2.31553 8.59995 2.70615 8.20933L6.9999 3.91558L11.2937 8.2062C11.6843 8.59683 12.3187 8.59683 12.7093 8.2062C13.0999 7.81558 13.0999 7.1812 12.7093 6.79058L7.70928 1.79058L7.70615 1.7937ZM12.7062 12.7937L7.70615 7.7937C7.31553 7.40308 6.68115 7.40308 6.29053 7.7937L1.29053 12.7937C0.899902 13.1843 0.899902 13.8187 1.29053 14.2093C1.68115 14.6 2.31553 14.6 2.70615 14.2093L6.9999 9.91558L11.2937 14.2062C11.6843 14.5968 12.3187 14.5968 12.7093 14.2062C13.0999 13.8156 13.0999 13.1812 12.7093 12.7906L12.7062 12.7937Z" fill="white"/>
</svg>
