<svg width="40" height="40" viewBox="0 0 40 40" fill="none" xmlns="http://www.w3.org/2000/svg">
<path d="M30.9375 26.0025C31.0425 25.8275 31.165 25.6525 31.2525 25.4775C31.0075 25.5475 30.8675 25.775 30.9375 26.0025ZM28.995 25.4775C27.595 25.39 26.0725 25.5825 24.69 25.4775C23.0975 25.355 22.5375 24.3225 22.135 22.9225C21.925 22.1875 21.995 21.5575 22.1525 20.84C23.7625 20.84 24.795 19.755 25.18 18.2675C25.1975 18.1625 25.11 18.145 25.04 18.0925C24.1475 17.585 22.7825 17.5675 21.9075 18.11L21.7325 17.8475C25.0575 17.1125 27.805 14.015 28.155 10.6375C28.2075 10.235 28.3125 9.77999 27.91 9.55249H27.6475C27.175 9.83249 27.315 10.445 27.2275 10.9C26.825 12.9475 25.6875 14.785 23.9375 15.9225L24.585 14.5575C24.7075 14.2075 24.83 13.735 24.8475 13.3675C24.8825 13.0875 24.9 12.0025 24.8475 11.7925C24.76 11.495 24.2875 11.4075 24.0775 11.635C23.92 11.7925 24.025 12.6675 23.99 12.965C23.9025 14.05 23.605 15.0125 22.87 15.8175C22.765 15.9225 21.96 16.675 21.8725 16.5875C21.9775 16.0975 22.1525 14.3825 21.9075 14.0675C21.785 13.8925 21.505 13.84 21.33 13.945C20.91 14.19 21.12 15.5375 21.085 16.0275C20.945 17.2525 19.2475 17.69 18.495 16.675C17.935 15.94 18.2675 15.0475 18.145 14.225C18.0925 13.77 17.4275 13.805 17.305 14.1725C17.2525 14.4 17.27 15.59 17.2875 15.8875C17.305 16.15 17.41 16.395 17.4275 16.6575C16.2375 15.9225 15.4325 14.645 15.31 13.2275C15.275 12.86 15.3975 11.915 15.2225 11.67C15.0125 11.425 14.5575 11.46 14.47 11.74C14.4 12.02 14.4175 13.0875 14.4525 13.4375C14.47 13.7525 14.575 14.2075 14.68 14.5225C14.8375 14.995 15.1 15.415 15.31 15.8525C15.2575 15.905 14.6275 15.3975 14.54 15.3275C13.2975 14.225 12.4225 12.6325 12.09 11.0225C11.985 10.5325 12.1075 9.84999 11.67 9.55249H11.3375C11.285 9.65749 11.1625 9.74499 11.11 9.83249C10.9875 10.165 11.25 11.355 11.355 11.7575C12.1075 14.68 14.54 17.1475 17.4975 17.8475L17.27 18.0925C16.675 17.725 16.0275 17.6375 15.345 17.725C15.1175 17.7425 14.05 18.04 14.05 18.2675C14.365 19.755 15.5375 20.8575 17.095 20.8225C17.1125 21.47 17.3225 22.1525 17.3575 22.7825C17.515 24.8475 16.9725 28.4175 17.7425 30.22C17.9175 30.6225 18.2675 30.92 18.4075 31.2175C18.8975 32.285 19.125 33.825 19.4925 35.1375H19.51C19.79 34.9975 20.07 34.8575 20.3325 34.7L19.615 32.1625C20.0175 32.4425 20.5775 32.67 20.91 33.02C21.1025 33.2125 21.3475 33.6675 21.4875 34.07C21.75 33.93 22.0125 33.79 22.2575 33.6325C21.68 32.18 21.155 30.7275 20.21 29.485C19.8775 29.03 19.8075 28.6975 19.755 28.155C19.72 27.8575 19.8775 27.245 19.545 27.0875C18.5125 26.6325 18.9325 28.89 19.125 29.38C19.3525 29.9225 19.755 30.15 20 30.5525C20.0525 30.64 20.42 31.4625 20.42 31.5675C19.6675 31.2525 18.8275 30.5525 18.53 29.7825C18.4775 29.6775 18.285 29.065 18.285 29.0125V24.0775C19.16 24.6025 20.3675 24.5675 21.1375 23.9025C21.2425 23.815 21.295 23.5875 21.47 23.605C21.82 24.97 22.7825 26.1425 24.2525 26.3175C25.705 26.475 27.385 26.23 28.8725 26.335C29.4675 26.265 29.3975 25.5475 28.995 25.4775ZM22.275 19.6675C22.275 19.4225 22.2575 19.16 22.275 18.915C22.87 18.565 23.3775 18.495 24.06 18.635C23.9375 19.265 23.3075 19.755 22.6775 19.8775C22.59 19.895 22.2225 20 22.205 19.8775C22.205 19.86 22.275 19.7725 22.275 19.685V19.6675ZM15.17 18.635C15.8 18.5125 16.5 18.5125 16.955 19.02V19.965C16.1675 19.86 15.3625 19.475 15.17 18.635ZM18.5475 23.045C18.5125 22.6775 19.0725 22.2225 19.405 22.17C19.965 22.065 20.6125 22.4675 20.6825 23.045C20.4725 23.7625 18.6525 23.6925 18.5475 23.045ZM21.1375 21.89C21.1375 21.89 20.6475 21.575 20.5425 21.5225C20 21.2425 19.3875 21.19 18.81 21.435C18.53 21.5575 18.355 21.785 18.0925 21.89C18.145 21.0675 17.5675 19.3875 17.97 18.6875C18.355 18.0225 19.51 18.04 20.175 18.11C22.2225 18.32 21.05 20.595 21.1375 21.89ZM25.5475 31.0425C25.4775 31.1475 25.4775 31.3225 25.495 31.515C25.7925 31.305 26.0725 31.0775 26.3525 30.85C26.265 30.815 26.195 30.7975 26.125 30.78C25.88 30.745 25.6875 30.8325 25.5475 31.0425Z" fill="white"/>
<path d="M34 7.75V20C34 22.8 33.2475 25.4075 31.7425 27.84C31.655 28.015 31.5325 28.19 31.4275 28.365C30.2725 30.08 28.75 31.7075 26.8425 33.2125C26.5625 33.44 26.2825 33.6675 25.985 33.8775C25.005 34.6125 23.92 35.3125 22.7475 35.995C22.5025 36.1525 22.24 36.2925 21.9775 36.4325C21.61 36.66 21.225 36.87 20.8225 37.0625C20.56 37.22 20.28 37.36 20 37.5H19.9825C10.655 32.8275 6 27 6 20V7.75L20 2.5L34 7.75Z" stroke="white" stroke-width="2" stroke-linecap="round" stroke-linejoin="round"/>
</svg>
